<svg id="svg" version="1.1" xmlns="http://www.w3.org/2000/svg" xmlns:xlink="http://www.w3.org/1999/xlink" width="400" height="400" viewBox="0, 0, 400,400"><g id="svgg"><path id="path0" d="M196.800 92.304 C 193.488 94.565,173.281 108.665,165.920 113.852 C 164.446 114.891,163.331 115.889,163.443 116.070 C 163.737 116.545,235.600 116.494,235.600 116.020 C 235.600 115.702,233.396 114.040,228.142 110.395 C 223.607 107.249,216.625 102.391,213.200 99.997 C 198.328 89.603,199.767 90.278,196.800 92.304 M155.600 121.850 C 152.630 123.516,146.979 126.503,143.042 128.487 C 139.105 130.472,133.165 133.860,129.842 136.016 C 126.519 138.172,121.210 141.616,118.044 143.668 C 99.597 155.629,101.001 154.418,97.483 161.403 C 94.644 167.041,94.212 166.566,102.395 166.800 C 108.795 166.983,109.402 167.063,109.532 167.740 C 110.221 171.332,101.772 179.418,93.800 182.795 L 89.000 184.829 83.800 184.715 L 78.600 184.600 78.469 183.452 C 78.239 181.437,78.712 180.646,81.371 178.600 C 84.867 175.910,85.050 176.000,76.064 176.000 L 68.128 176.000 62.764 179.456 C 59.814 181.357,54.610 184.720,51.200 186.929 C 47.790 189.138,42.930 192.286,40.400 193.925 C 33.047 198.688,32.068 199.382,32.263 199.700 C 32.364 199.865,37.039 200.000,42.650 200.000 L 52.853 200.000 54.164 199.000 C 55.792 197.758,56.705 197.725,56.872 198.900 L 57.000 199.800 69.000 199.797 L 81.000 199.794 88.400 196.686 C 92.470 194.977,96.340 193.335,97.000 193.037 C 97.660 192.740,100.990 191.269,104.400 189.767 C 110.994 186.864,110.987 186.869,115.994 181.194 C 117.641 179.327,120.079 176.630,121.412 175.200 C 122.745 173.770,125.422 170.848,127.360 168.708 L 130.885 164.815 131.049 161.308 C 131.139 159.378,131.390 156.936,131.606 155.880 C 131.823 154.824,132.000 153.429,132.000 152.780 L 132.000 151.600 126.824 151.600 C 123.927 151.600,121.542 151.430,121.408 151.214 C 120.314 149.443,131.464 140.090,139.672 135.894 C 147.489 131.896,150.212 134.704,143.817 140.168 C 140.987 142.586,141.175 142.800,146.135 142.800 C 151.240 142.800,150.062 143.687,160.875 131.692 C 165.780 126.251,170.288 121.260,170.894 120.600 C 171.500 119.940,171.997 119.265,171.998 119.100 C 172.001 118.609,168.127 118.759,166.951 119.295 C 166.086 119.689,165.830 119.689,165.698 119.295 C 165.173 117.719,161.150 118.736,155.600 121.850 M174.336 119.212 C 173.971 119.425,172.500 120.994,171.067 122.700 C 169.634 124.405,167.013 127.510,165.242 129.600 C 162.043 133.376,161.579 134.193,162.460 134.487 C 162.922 134.641,161.960 136.148,159.317 139.414 C 153.964 146.029,150.306 150.580,148.600 152.748 C 147.500 154.146,145.970 156.061,145.200 157.003 C 144.430 157.945,143.037 159.679,142.104 160.858 C 141.171 162.036,138.955 164.800,137.179 167.000 C 135.403 169.200,133.472 171.630,132.888 172.400 C 132.305 173.170,131.281 174.447,130.613 175.239 C 129.946 176.030,128.590 177.734,127.600 179.026 C 123.536 184.326,122.952 184.799,120.449 184.809 L 118.200 184.817 114.600 189.073 C 107.134 197.898,106.000 199.291,106.000 199.641 C 106.000 199.850,120.665 200.000,141.192 200.000 L 176.385 200.000 176.589 199.100 C 176.701 198.605,177.524 194.060,178.417 189.000 C 179.309 183.940,180.192 179.022,180.378 178.071 C 180.811 175.853,181.282 175.962,171.813 176.091 L 163.849 176.200 162.251 180.200 C 160.247 185.215,161.286 184.787,151.100 184.794 C 141.262 184.801,141.602 184.940,143.545 181.706 C 144.941 179.382,154.767 162.774,160.409 153.200 C 171.176 134.932,171.372 134.632,172.834 134.150 C 174.148 133.716,181.600 121.113,181.600 119.324 C 181.600 118.689,175.396 118.593,174.336 119.212 M193.669 119.317 C 193.293 119.770,191.600 131.156,191.600 133.228 C 191.600 133.652,191.848 134.000,192.151 134.000 C 193.512 134.000,193.567 134.901,192.798 144.615 C 191.755 157.778,191.320 163.517,190.571 174.000 C 189.787 184.969,189.840 184.800,187.216 184.800 C 185.464 184.800,185.192 184.912,185.025 185.700 C 184.484 188.255,183.204 199.283,183.409 199.615 C 183.555 199.852,189.976 200.000,200.059 200.000 L 216.470 200.000 216.220 198.300 C 216.083 197.365,215.809 195.880,215.612 195.000 C 215.415 194.120,215.049 192.230,214.800 190.800 C 214.551 189.370,214.158 187.443,213.926 186.519 L 213.506 184.837 211.257 184.719 L 209.007 184.600 208.310 179.800 C 207.927 177.160,207.417 173.560,207.177 171.800 C 206.937 170.040,206.574 167.385,206.371 165.900 C 206.167 164.415,205.835 161.985,205.633 160.500 C 205.431 159.015,204.621 153.135,203.833 147.433 C 202.158 135.316,202.128 134.689,203.181 133.949 C 203.879 133.459,203.921 133.185,203.572 131.400 C 203.357 130.300,202.819 127.350,202.376 124.845 C 201.264 118.565,201.457 118.800,197.435 118.800 C 195.194 118.800,193.957 118.970,193.669 119.317 M203.450 119.120 C 203.341 119.295,203.878 122.040,204.642 125.220 C 206.781 134.116,206.656 133.770,207.895 134.238 C 209.082 134.686,210.358 138.250,213.608 150.200 C 213.961 151.499,215.820 157.702,217.204 162.200 C 217.678 163.740,218.214 165.540,218.394 166.200 C 218.574 166.860,219.712 170.820,220.923 175.000 C 223.868 185.173,223.833 184.555,221.490 184.800 C 220.440 184.910,219.571 185.138,219.560 185.307 C 219.496 186.268,222.705 199.265,223.106 199.666 C 223.293 199.853,235.136 199.960,249.423 199.903 L 275.400 199.800 276.881 197.600 C 278.627 195.008,282.007 188.353,281.984 187.556 C 281.964 186.882,282.189 187.141,269.808 173.560 C 264.312 167.532,259.182 161.887,258.408 161.015 C 257.633 160.143,255.740 158.066,254.200 156.399 C 252.660 154.732,249.060 150.779,246.200 147.615 C 240.520 141.331,240.648 141.471,235.656 136.042 C 233.724 133.941,230.171 130.749,227.600 128.804 C 225.070 126.891,221.234 123.857,219.075 122.063 L 215.150 118.800 209.399 118.800 C 206.235 118.800,203.558 118.944,203.450 119.120 M222.871 119.374 C 223.133 120.537,236.786 134.000,237.710 134.006 C 238.974 134.015,237.969 133.094,256.038 150.800 C 293.713 187.719,290.955 184.800,288.171 184.800 C 285.984 184.800,286.354 185.324,293.958 192.987 L 300.917 200.000 334.458 200.000 C 354.928 200.000,368.000 199.855,368.000 199.627 C 368.000 199.422,365.885 197.958,363.300 196.374 C 360.715 194.790,357.970 193.085,357.200 192.586 C 356.430 192.086,350.940 188.645,345.000 184.939 L 334.200 178.200 325.600 178.107 L 317.000 178.014 318.200 179.003 C 318.860 179.546,320.558 180.848,321.973 181.895 C 325.930 184.825,325.972 184.800,317.123 184.800 L 309.378 184.800 305.389 181.578 C 303.195 179.806,301.040 178.049,300.600 177.673 C 300.160 177.298,297.910 175.479,295.600 173.632 C 287.811 167.405,287.679 167.199,291.500 167.204 C 294.127 167.207,294.270 167.261,296.772 169.204 L 299.344 171.200 306.872 171.200 C 311.012 171.200,314.396 171.065,314.391 170.900 C 314.385 170.735,312.287 169.250,309.728 167.600 C 307.169 165.950,299.298 160.778,292.238 156.106 L 279.400 147.612 274.500 147.606 C 268.967 147.599,268.569 147.865,271.291 149.750 C 272.880 150.851,272.918 150.925,272.176 151.479 C 271.094 152.285,269.030 151.879,267.307 150.519 C 266.527 149.904,265.201 148.860,264.361 148.200 C 263.521 147.540,260.261 144.903,257.117 142.341 C 246.781 133.917,246.835 134.000,251.768 134.000 L 254.688 134.000 259.508 137.400 L 264.328 140.800 268.564 140.800 C 270.894 140.800,272.800 140.661,272.800 140.491 C 272.800 140.321,268.975 137.822,264.300 134.938 C 259.625 132.053,251.840 127.243,247.000 124.247 L 238.200 118.801 230.471 118.800 C 223.965 118.800,222.762 118.891,222.871 119.374 M224.011 134.671 C 227.838 137.268,228.778 138.398,237.366 150.718 C 238.485 152.324,240.580 155.294,242.023 157.318 C 243.466 159.343,247.590 165.230,251.186 170.400 C 254.783 175.570,257.860 179.980,258.023 180.200 C 258.341 180.628,256.925 184.004,256.222 184.494 C 255.450 185.031,242.941 184.855,242.505 184.300 C 241.397 182.890,217.590 135.004,217.767 134.541 C 218.083 133.720,222.752 133.817,224.011 134.671 " stroke="none" fill="#fcf5f5" fill-rule="evenodd"></path><path id="path1" d="M197.400 74.400 C 197.264 74.620,196.544 74.800,195.800 74.800 C 195.056 74.800,194.336 74.980,194.200 75.200 C 194.064 75.420,193.511 75.600,192.972 75.600 C 192.077 75.600,187.181 78.559,186.867 79.290 C 186.793 79.461,186.556 79.600,186.339 79.600 C 185.743 79.600,182.343 82.006,181.140 83.279 C 180.556 83.895,179.874 84.400,179.623 84.400 C 179.372 84.400,178.780 84.760,178.308 85.200 C 177.836 85.640,177.213 86.000,176.925 86.000 C 176.636 86.000,176.400 86.180,176.400 86.400 C 176.400 86.620,176.157 86.800,175.859 86.800 C 175.562 86.800,174.754 87.340,174.063 88.000 C 173.372 88.660,172.575 89.200,172.292 89.200 C 172.009 89.200,171.517 89.560,171.200 90.000 C 170.883 90.440,170.438 90.800,170.212 90.800 C 169.985 90.801,169.264 91.262,168.610 91.825 C 167.955 92.387,166.855 93.116,166.164 93.444 C 165.473 93.772,164.569 94.355,164.154 94.739 C 163.739 95.124,162.230 96.229,160.800 97.195 C 159.370 98.161,157.723 99.457,157.140 100.075 C 156.556 100.694,155.791 101.200,155.440 101.200 C 155.088 101.200,154.800 101.380,154.800 101.600 C 154.800 101.820,154.558 102.000,154.261 102.000 C 152.664 102.000,149.200 104.872,149.200 106.197 C 149.200 106.528,148.964 106.800,148.675 106.800 C 148.387 106.800,147.764 107.160,147.292 107.600 C 146.820 108.040,146.156 108.400,145.817 108.400 C 145.478 108.400,145.200 108.580,145.200 108.800 C 145.200 109.020,144.840 109.200,144.400 109.200 C 143.960 109.200,143.600 109.380,143.600 109.600 C 143.600 109.820,143.375 109.999,143.100 109.997 C 142.465 109.994,134.245 114.086,134.067 114.495 C 133.993 114.663,133.603 114.800,133.200 114.800 C 132.797 114.800,132.407 114.944,132.333 115.120 C 132.260 115.296,130.964 116.061,129.453 116.820 C 125.315 118.899,125.200 118.966,125.200 119.295 C 125.200 119.463,124.968 119.600,124.685 119.600 C 124.402 119.600,123.547 120.133,122.785 120.784 C 122.023 121.435,121.175 121.975,120.900 121.984 C 120.625 121.993,120.400 122.180,120.400 122.400 C 120.400 122.620,120.175 122.801,119.900 122.802 C 119.625 122.803,118.825 123.343,118.122 124.002 C 117.419 124.661,116.564 125.200,116.222 125.200 C 115.880 125.200,115.600 125.380,115.600 125.600 C 115.600 125.820,115.268 126.000,114.862 126.000 C 114.456 126.000,113.798 126.360,113.400 126.800 C 113.002 127.240,112.513 127.600,112.315 127.600 C 111.907 127.600,108.672 130.038,108.467 130.500 C 108.393 130.665,107.988 130.800,107.567 130.800 C 107.145 130.800,106.800 130.980,106.800 131.200 C 106.800 131.420,106.564 131.600,106.275 131.600 C 105.987 131.600,105.364 131.960,104.892 132.400 C 104.420 132.840,103.926 133.200,103.795 133.200 C 103.664 133.200,102.496 133.920,101.200 134.800 C 99.904 135.680,98.736 136.400,98.605 136.400 C 98.474 136.400,97.980 136.760,97.508 137.200 C 97.036 137.640,96.413 138.000,96.125 138.000 C 95.836 138.000,95.600 138.180,95.600 138.400 C 95.600 138.620,95.336 138.800,95.014 138.800 C 94.692 138.800,94.235 139.160,94.000 139.600 C 93.765 140.040,93.391 140.400,93.169 140.400 C 92.948 140.400,92.380 140.760,91.908 141.200 C 91.436 141.640,90.820 142.000,90.539 142.000 C 90.259 142.000,89.304 143.069,88.417 144.375 C 87.530 145.682,86.623 146.862,86.402 146.999 C 86.181 147.135,86.000 147.516,86.000 147.846 C 86.000 148.175,85.280 149.504,84.400 150.800 C 83.520 152.096,82.800 153.325,82.800 153.531 C 82.800 153.738,82.440 154.001,82.000 154.116 C 81.378 154.279,81.197 154.668,81.187 155.863 C 81.164 158.625,80.900 158.738,73.971 158.934 C 67.606 159.114,64.954 159.427,64.573 160.044 C 64.452 160.240,63.829 160.400,63.189 160.400 C 62.164 160.400,59.351 161.648,58.800 162.346 C 58.582 162.623,57.202 163.443,55.542 164.282 C 54.960 164.576,54.263 165.083,53.993 165.408 C 53.723 165.734,53.336 166.000,53.133 166.000 C 52.930 166.000,51.430 166.900,49.800 168.000 C 48.170 169.100,46.720 170.000,46.579 170.000 C 46.437 170.000,45.817 170.540,45.200 171.200 C 44.583 171.860,43.791 172.400,43.440 172.400 C 43.088 172.400,42.800 172.562,42.800 172.761 C 42.800 172.959,42.262 173.309,41.605 173.538 C 40.316 173.988,36.685 176.347,36.467 176.877 C 36.393 177.055,36.123 177.200,35.867 177.201 C 35.610 177.201,34.770 177.741,34.000 178.400 C 33.230 179.059,32.375 179.599,32.100 179.599 C 31.825 179.600,31.600 179.759,31.600 179.953 C 31.600 180.148,31.285 180.410,30.900 180.536 C 29.137 181.113,22.000 185.827,22.000 186.415 C 22.000 186.627,21.640 186.800,21.200 186.800 C 20.760 186.800,20.400 186.980,20.400 187.200 C 20.400 187.420,20.124 187.600,19.787 187.600 C 19.451 187.600,19.058 187.915,18.915 188.300 C 18.772 188.685,18.364 189.270,18.009 189.600 C 16.744 190.774,15.600 192.739,15.600 193.738 C 15.600 194.296,15.440 194.852,15.244 194.973 C 14.907 195.181,14.665 196.224,14.139 199.741 C 14.003 200.647,14.113 201.663,14.405 202.208 C 14.882 203.101,14.823 204.852,14.159 209.502 C 14.025 210.438,14.044 211.518,14.202 211.902 C 14.359 212.286,14.531 213.194,14.583 213.920 C 14.636 214.645,14.886 215.446,15.140 215.700 C 15.393 215.953,15.600 216.681,15.600 217.317 C 15.600 218.138,15.833 218.536,16.400 218.684 C 16.840 218.799,17.200 219.128,17.200 219.415 C 17.200 220.103,20.710 223.600,21.401 223.600 C 21.827 223.600,21.929 224.773,21.895 229.300 C 21.855 234.631,22.373 238.614,23.266 239.830 C 23.439 240.066,23.390 240.450,23.158 240.682 C 22.721 241.119,23.465 242.800,24.096 242.800 C 24.263 242.800,24.400 243.160,24.400 243.600 C 24.400 244.040,24.580 244.400,24.800 244.400 C 25.020 244.400,25.200 244.667,25.200 244.993 C 25.200 246.207,29.791 250.800,31.005 250.800 C 31.332 250.800,31.600 250.980,31.600 251.200 C 31.600 251.420,31.883 251.600,32.229 251.600 C 33.863 251.600,34.000 252.366,34.000 261.526 C 34.000 270.845,33.987 270.921,31.900 273.642 C 31.295 274.430,30.800 275.496,30.800 276.009 C 30.800 276.983,30.155 279.299,29.551 280.495 C 29.156 281.276,29.087 282.553,29.420 282.887 C 29.542 283.008,29.684 289.833,29.738 298.054 C 29.807 308.815,29.970 313.245,30.317 313.874 C 30.583 314.354,30.800 315.226,30.800 315.812 C 30.800 318.667,37.908 325.200,41.014 325.200 C 41.530 325.200,42.064 325.380,42.200 325.600 C 42.336 325.820,43.056 326.000,43.800 326.000 C 44.544 326.000,45.264 326.180,45.400 326.400 C 45.738 326.947,73.462 326.947,73.800 326.400 C 73.936 326.180,75.196 326.000,76.600 326.000 C 78.004 326.000,79.264 326.180,79.400 326.400 C 79.557 326.654,84.663 326.800,93.400 326.800 C 102.137 326.800,107.243 326.654,107.400 326.400 C 107.536 326.180,108.166 326.000,108.800 326.000 C 109.434 326.000,110.064 325.820,110.200 325.600 C 110.336 325.380,111.207 325.200,112.135 325.200 C 113.365 325.200,113.980 324.983,114.400 324.400 C 114.717 323.960,115.282 323.600,115.655 323.600 C 116.028 323.600,116.425 323.375,116.536 323.100 C 116.674 322.760,116.845 322.735,117.070 323.019 C 117.938 324.121,120.050 325.200,121.338 325.200 C 122.116 325.200,122.864 325.380,123.000 325.600 C 123.136 325.820,123.856 326.000,124.600 326.000 C 125.344 326.000,126.064 326.180,126.200 326.400 C 126.540 326.949,151.296 326.944,151.846 326.394 C 152.069 326.171,153.222 325.967,154.410 325.940 C 155.693 325.911,157.107 325.589,157.896 325.146 C 158.627 324.736,159.423 324.400,159.665 324.400 C 159.908 324.400,160.397 324.076,160.753 323.681 C 161.109 323.286,161.987 322.552,162.705 322.050 C 163.423 321.549,164.920 320.252,166.032 319.169 C 167.144 318.086,168.292 317.200,168.583 317.200 C 168.875 317.200,169.215 316.795,169.339 316.300 C 169.740 314.703,170.673 313.728,171.253 314.300 C 171.532 314.575,172.084 314.800,172.480 314.800 C 172.933 314.800,173.200 315.096,173.200 315.600 C 173.200 316.044,173.467 316.400,173.800 316.400 C 174.130 316.400,174.400 316.595,174.400 316.834 C 174.400 317.544,179.145 322.000,179.903 322.002 C 180.286 322.003,181.148 322.498,181.817 323.102 C 183.596 324.707,184.620 325.200,186.171 325.200 C 186.931 325.200,187.664 325.380,187.800 325.600 C 187.936 325.820,188.566 326.000,189.200 326.000 C 189.834 326.000,190.464 326.180,190.600 326.400 C 190.755 326.651,194.930 326.800,201.800 326.800 C 208.670 326.800,212.845 326.651,213.000 326.400 C 213.136 326.180,213.741 326.000,214.344 326.000 C 214.947 326.000,215.648 325.792,215.903 325.537 C 216.254 325.186,216.515 325.197,216.978 325.582 C 217.718 326.196,218.800 325.858,218.800 325.013 C 218.800 324.667,219.148 324.400,219.600 324.400 C 220.040 324.400,220.400 324.220,220.400 324.000 C 220.400 323.780,220.745 323.600,221.167 323.600 C 221.588 323.600,221.993 323.458,222.067 323.286 C 222.379 322.549,224.952 321.055,225.107 321.520 C 225.195 321.784,225.495 322.000,225.774 322.000 C 226.053 322.000,226.846 322.540,227.537 323.200 C 228.228 323.860,229.064 324.400,229.396 324.400 C 229.728 324.400,230.000 324.580,230.000 324.800 C 230.000 325.020,230.624 325.200,231.386 325.200 C 232.362 325.200,232.898 325.436,233.200 326.000 C 233.679 326.895,234.792 327.048,235.520 326.320 C 235.893 325.947,236.107 325.947,236.480 326.320 C 237.094 326.934,255.423 327.010,255.800 326.400 C 256.121 325.881,258.279 325.881,258.600 326.400 C 258.753 326.648,262.396 326.800,268.200 326.800 C 274.004 326.800,277.647 326.648,277.800 326.400 C 277.936 326.180,278.566 326.000,279.200 326.000 C 279.834 326.000,280.464 325.820,280.600 325.600 C 280.736 325.380,281.469 325.200,282.229 325.200 C 283.678 325.200,284.800 324.713,286.296 323.434 C 287.182 322.677,287.200 322.678,287.943 323.534 C 288.356 324.010,288.977 324.400,289.323 324.400 C 289.670 324.400,290.064 324.580,290.200 324.800 C 290.336 325.020,291.056 325.200,291.800 325.200 C 292.544 325.200,293.264 325.380,293.400 325.600 C 293.536 325.820,294.346 326.000,295.200 326.000 C 296.054 326.000,296.864 326.180,297.000 326.400 C 297.339 326.948,352.489 326.951,353.038 326.402 C 353.256 326.184,354.644 325.971,356.121 325.931 C 358.144 325.875,358.968 325.677,359.465 325.128 C 359.827 324.728,360.366 324.400,360.662 324.400 C 360.958 324.400,361.200 324.250,361.200 324.068 C 361.200 323.885,361.695 323.480,362.300 323.168 C 363.763 322.413,366.796 319.531,366.798 318.895 C 366.800 318.402,366.987 317.945,367.938 316.105 C 368.192 315.613,368.400 314.794,368.400 314.285 C 368.400 313.776,368.593 313.167,368.828 312.932 C 369.118 312.642,369.297 305.807,369.382 291.752 C 369.507 271.001,369.926 264.126,371.201 261.905 C 371.716 261.008,371.716 259.600,371.200 259.600 C 370.679 259.600,370.679 257.322,371.200 257.000 C 371.420 256.864,371.600 256.324,371.600 255.800 C 371.600 255.276,371.780 254.736,372.000 254.600 C 372.221 254.464,372.400 252.670,372.400 250.600 C 372.400 248.530,372.579 246.736,372.800 246.600 C 373.020 246.464,373.200 245.564,373.200 244.600 C 373.200 243.636,373.380 242.736,373.600 242.600 C 373.820 242.464,374.000 241.204,374.000 239.800 C 374.000 238.396,374.180 237.136,374.400 237.000 C 374.620 236.864,374.800 235.593,374.800 234.176 C 374.800 232.725,374.975 231.600,375.200 231.600 C 375.420 231.600,375.600 230.646,375.600 229.480 C 375.600 226.767,376.213 225.505,378.092 224.343 C 378.921 223.831,379.600 223.274,379.600 223.106 C 379.600 222.938,379.876 222.800,380.213 222.800 C 380.549 222.800,380.943 222.494,381.086 222.119 C 381.230 221.745,381.854 220.908,382.474 220.260 C 383.093 219.612,383.600 218.838,383.600 218.541 C 383.600 218.243,383.780 218.000,384.000 218.000 C 384.220 218.000,384.400 217.651,384.400 217.224 C 384.400 216.797,384.560 216.348,384.756 216.227 C 385.551 215.736,386.314 208.154,385.636 207.476 C 385.089 206.929,385.060 203.334,385.600 203.000 C 386.523 202.430,385.948 196.276,384.751 193.905 C 384.558 193.523,384.400 192.950,384.400 192.630 C 384.400 191.965,379.492 186.800,378.859 186.800 C 378.629 186.800,377.937 186.126,377.320 185.303 C 375.337 182.652,373.887 181.200,373.224 181.200 C 372.868 181.200,372.317 180.840,372.000 180.400 C 371.683 179.960,371.103 179.600,370.712 179.600 C 370.320 179.600,370.000 179.420,370.000 179.200 C 370.000 178.980,369.381 178.800,368.624 178.800 C 367.867 178.800,367.136 178.620,367.000 178.400 C 366.864 178.180,366.223 178.000,365.576 178.000 C 364.929 178.000,364.400 177.850,364.400 177.668 C 364.400 177.485,363.905 177.080,363.300 176.768 C 362.695 176.456,362.110 176.087,362.000 175.946 C 361.618 175.460,357.562 173.200,357.071 173.200 C 356.799 173.200,356.317 172.840,356.000 172.400 C 355.683 171.960,355.118 171.600,354.745 171.600 C 354.372 171.600,354.007 171.451,353.933 171.270 C 353.735 170.777,348.097 167.113,345.800 165.984 C 344.700 165.443,343.710 164.886,343.600 164.746 C 343.044 164.041,340.231 162.800,339.188 162.800 C 338.535 162.800,338.000 162.620,338.000 162.400 C 338.000 162.180,337.381 162.000,336.624 162.000 C 335.867 162.000,335.136 161.820,335.000 161.600 C 334.864 161.380,333.366 161.200,331.671 161.200 C 328.842 161.200,328.528 161.117,327.830 160.188 C 327.412 159.631,326.469 158.891,325.735 158.542 C 325.001 158.194,324.400 157.749,324.400 157.554 C 324.400 157.359,324.106 157.200,323.747 157.200 C 323.388 157.200,322.803 156.872,322.447 156.472 C 322.091 156.071,320.630 154.959,319.200 153.999 C 317.770 153.040,316.540 152.108,316.467 151.928 C 316.393 151.747,316.117 151.600,315.852 151.600 C 315.587 151.600,314.747 151.067,313.985 150.416 C 313.223 149.765,312.235 149.225,311.788 149.216 C 311.342 149.207,310.717 148.840,310.400 148.400 C 310.083 147.960,309.503 147.600,309.112 147.600 C 308.720 147.600,308.400 147.450,308.400 147.268 C 308.400 147.085,307.921 146.680,307.337 146.368 C 306.752 146.055,305.769 145.330,305.153 144.755 C 304.537 144.180,303.035 143.222,301.815 142.625 C 300.595 142.028,299.372 141.318,299.098 141.048 C 298.824 140.777,297.430 139.765,296.000 138.797 C 294.570 137.830,293.051 136.715,292.625 136.319 C 292.198 135.924,291.613 135.600,291.325 135.600 C 291.036 135.600,290.800 135.441,290.800 135.247 C 290.800 135.052,290.440 134.799,290.000 134.684 C 289.539 134.563,289.200 134.138,289.200 133.680 C 289.200 132.764,284.734 128.029,283.100 127.214 C 282.495 126.912,282.000 126.515,282.000 126.332 C 282.000 126.150,281.722 126.000,281.383 126.000 C 281.044 126.000,280.380 125.640,279.908 125.200 C 279.436 124.760,278.813 124.400,278.525 124.400 C 278.236 124.400,278.000 124.248,278.000 124.063 C 278.000 123.877,277.146 123.292,276.103 122.763 C 275.059 122.233,273.683 121.305,273.043 120.700 C 272.404 120.095,271.621 119.600,271.302 119.600 C 270.984 119.600,270.246 119.279,269.662 118.886 C 269.078 118.493,268.060 117.908,267.400 117.586 C 266.740 117.264,265.660 116.506,265.000 115.902 C 264.340 115.298,263.575 114.803,263.300 114.802 C 263.025 114.801,262.800 114.641,262.800 114.447 C 262.800 114.252,262.485 113.993,262.100 113.871 C 261.220 113.592,259.261 112.399,258.310 111.564 C 257.912 111.214,257.185 110.743,256.693 110.517 C 256.202 110.292,255.260 109.859,254.600 109.556 C 253.940 109.253,253.109 108.689,252.753 108.303 C 252.397 107.916,251.889 107.600,251.625 107.600 C 251.066 107.600,250.620 107.162,249.080 105.100 C 248.463 104.275,247.781 103.600,247.563 103.600 C 247.345 103.600,246.780 103.240,246.308 102.800 C 245.836 102.360,245.150 102.000,244.784 102.000 C 244.418 102.000,243.590 101.495,242.944 100.878 C 241.869 99.850,238.840 97.574,237.252 96.600 C 236.894 96.380,236.510 96.098,236.400 95.974 C 235.909 95.418,232.413 93.200,232.028 93.200 C 231.793 93.200,231.600 93.050,231.600 92.868 C 231.600 92.685,231.105 92.281,230.500 91.970 C 229.895 91.660,229.109 91.089,228.753 90.703 C 228.397 90.316,227.878 90.000,227.600 90.000 C 227.322 90.000,226.803 89.669,226.447 89.265 C 225.564 88.261,221.019 85.200,220.412 85.200 C 220.142 85.200,219.444 84.695,218.860 84.079 C 218.277 83.462,216.900 82.350,215.800 81.609 C 214.700 80.867,213.296 79.846,212.681 79.340 C 212.065 78.834,210.964 78.136,210.235 77.790 C 209.505 77.443,208.531 76.809,208.071 76.380 C 207.610 75.951,206.787 75.600,206.240 75.600 C 205.694 75.600,205.136 75.420,205.000 75.200 C 204.864 74.980,204.133 74.800,203.376 74.800 C 202.619 74.800,202.000 74.620,202.000 74.400 C 202.000 74.180,201.021 74.000,199.824 74.000 C 198.627 74.000,197.536 74.180,197.400 74.400 M202.546 78.169 C 205.418 78.917,206.016 79.278,215.600 86.045 C 219.618 88.882,233.375 98.425,239.000 102.277 C 242.300 104.537,245.900 107.277,247.000 108.366 C 248.100 109.455,251.250 111.733,254.000 113.428 C 283.179 131.411,283.594 131.693,285.272 134.666 C 286.628 137.069,287.233 137.494,318.194 157.796 C 320.831 159.525,323.834 161.809,324.868 162.870 L 326.748 164.800 329.949 164.800 C 336.725 164.800,337.083 164.952,351.863 174.101 C 361.603 180.131,363.522 181.170,366.063 181.786 C 369.350 182.583,371.982 184.230,373.251 186.283 C 373.701 187.011,375.131 188.424,376.429 189.422 C 384.677 195.769,383.388 209.826,374.377 211.805 C 372.743 212.164,372.580 212.554,372.049 217.400 C 371.783 219.820,371.395 222.790,371.187 224.000 C 369.702 232.616,369.286 235.373,368.835 239.600 C 367.177 255.142,366.048 260.809,363.962 264.060 L 362.646 266.110 363.500 267.595 C 365.303 270.727,365.600 273.533,365.594 287.325 C 365.586 304.281,364.918 307.080,360.115 310.272 C 356.275 312.824,356.142 312.833,323.992 312.708 C 291.613 312.581,292.863 312.687,289.004 309.741 C 287.713 308.755,286.924 308.395,286.591 308.638 C 281.001 312.724,282.410 312.527,257.600 312.678 C 230.414 312.844,230.790 312.926,225.329 305.636 C 225.261 305.546,224.170 306.454,222.903 307.653 C 217.852 312.436,216.332 312.804,201.668 312.788 C 185.787 312.772,185.640 312.718,176.606 303.625 C 173.970 300.971,171.627 298.800,171.400 298.800 C 171.174 298.800,168.651 301.147,165.794 304.016 C 156.893 312.954,157.095 312.890,138.371 312.685 C 123.387 312.521,122.198 312.359,118.950 310.033 L 116.737 308.448 114.233 310.163 C 112.849 311.110,110.939 312.032,109.964 312.222 C 108.541 312.500,83.320 312.715,77.000 312.503 C 76.120 312.473,68.840 312.532,60.822 312.634 C 41.539 312.880,38.889 312.268,35.523 306.793 C 33.440 303.403,32.149 286.170,33.577 280.800 C 33.781 280.030,34.145 278.642,34.385 277.716 C 34.626 276.790,35.477 275.174,36.278 274.125 L 37.733 272.219 37.767 257.009 C 37.807 238.594,37.916 239.716,36.030 239.208 C 29.048 237.328,25.893 231.063,25.803 218.899 L 25.752 211.997 23.947 210.852 C 19.327 207.922,17.223 202.592,18.533 197.135 C 19.809 191.816,19.502 192.068,44.400 175.996 C 48.250 173.511,53.862 169.873,56.872 167.910 C 63.873 163.345,64.555 163.152,74.725 162.845 L 82.850 162.600 84.017 159.692 C 85.722 155.445,88.220 151.048,91.308 146.858 C 92.568 145.149,94.191 143.865,99.344 140.499 C 102.895 138.180,107.780 134.988,110.200 133.405 C 112.620 131.823,115.860 129.715,117.400 128.720 C 118.940 127.726,122.270 125.565,124.800 123.918 C 127.330 122.272,133.720 118.716,139.000 116.015 C 149.366 110.714,150.387 110.098,152.163 108.075 C 152.807 107.342,154.879 105.709,156.767 104.446 C 158.655 103.184,161.460 101.274,163.000 100.201 C 168.642 96.272,182.745 86.442,187.971 82.797 C 194.986 77.903,197.932 76.967,202.546 78.169 M176.592 151.300 C 173.115 157.041,170.532 161.479,170.267 162.170 C 170.056 162.718,170.563 162.800,174.166 162.800 L 178.308 162.800 178.540 160.700 C 178.667 159.545,178.875 156.980,179.002 155.000 C 179.129 153.020,179.332 150.545,179.454 149.500 C 179.780 146.697,179.134 147.103,176.592 151.300 M46.667 205.867 C 46.520 206.013,46.400 209.964,46.400 214.646 L 46.400 223.158 48.500 223.279 L 50.600 223.400 50.703 252.512 C 50.792 277.971,50.731 281.652,50.210 281.851 C 49.883 281.977,48.937 282.107,48.108 282.140 L 46.600 282.200 46.600 291.000 L 46.600 299.800 59.800 299.800 L 73.000 299.800 73.108 291.100 C 73.178 285.409,73.075 282.383,72.808 282.350 C 72.584 282.322,72.220 282.255,72.000 282.200 C 71.780 282.145,70.970 282.078,70.200 282.050 L 68.800 282.000 68.800 271.800 L 68.800 261.600 76.357 261.600 C 85.413 261.600,84.400 260.264,84.400 272.209 C 84.400 282.320,84.460 282.066,82.073 282.105 C 81.263 282.118,80.375 282.302,80.100 282.513 C 79.402 283.051,79.383 298.823,80.080 299.520 C 80.989 300.429,105.874 300.182,106.368 299.260 C 106.982 298.112,106.919 282.921,106.299 282.537 C 106.024 282.367,105.113 282.213,104.273 282.195 C 101.939 282.144,102.013 283.106,102.006 252.549 C 101.999 221.066,101.783 223.343,104.795 223.128 L 106.574 223.000 106.587 214.400 L 106.600 205.800 103.036 205.684 C 98.694 205.542,98.947 205.285,98.386 210.400 C 97.398 219.418,97.238 220.650,96.865 222.111 C 96.173 224.823,94.546 226.050,92.993 225.032 C 91.512 224.062,91.183 222.121,91.641 217.053 C 91.863 214.604,91.989 211.070,91.922 209.200 L 91.800 205.800 87.000 205.800 L 82.200 205.800 82.311 207.200 C 82.371 207.970,82.063 211.733,81.625 215.561 C 80.754 223.176,80.756 223.200,82.344 223.200 C 82.947 223.200,83.656 223.416,83.920 223.680 C 84.491 224.251,84.603 242.260,84.041 243.148 C 83.672 243.730,74.565 244.100,70.693 243.689 L 68.787 243.487 68.893 233.443 L 69.000 223.400 71.108 223.279 L 73.215 223.158 73.108 214.479 L 73.000 205.800 69.340 205.686 L 65.679 205.571 65.448 207.686 C 65.321 208.848,65.050 214.570,64.847 220.400 C 64.268 236.977,64.097 238.194,62.170 239.457 C 58.930 241.579,58.040 238.853,58.093 226.973 C 58.129 218.772,57.549 207.753,56.993 206.100 C 56.813 205.563,47.188 205.346,46.667 205.867 M130.251 205.918 C 129.757 206.717,128.582 228.408,129.033 228.401 C 129.052 228.400,130.237 227.230,131.667 225.800 L 134.267 223.200 136.692 223.200 L 139.117 223.200 139.430 219.900 C 139.783 216.192,139.755 206.574,139.390 205.984 C 139.106 205.524,130.533 205.462,130.251 205.918 M146.698 205.836 C 146.568 205.965,146.556 206.650,146.671 207.358 C 146.786 208.066,146.591 211.065,146.238 214.022 C 145.114 223.439,145.195 224.557,147.148 226.547 L 148.800 228.230 148.800 252.828 L 148.800 277.425 146.466 279.735 L 144.131 282.045 139.408 282.137 C 134.176 282.239,133.264 281.893,130.686 278.829 C 129.377 277.273,129.500 279.357,129.377 256.800 C 129.320 246.570,129.234 237.120,129.184 235.800 L 129.093 233.400 128.835 235.235 C 128.241 239.468,125.142 241.315,123.315 238.527 C 122.741 237.650,122.638 235.914,122.550 225.657 C 122.494 219.136,122.292 213.080,122.101 212.200 L 121.755 210.600 117.716 214.537 C 112.792 219.337,113.207 217.447,112.865 236.600 C 112.674 247.283,112.461 251.643,112.100 252.274 C 111.723 252.932,111.600 257.041,111.600 268.951 L 111.600 284.755 113.929 287.077 C 115.211 288.355,118.691 291.785,121.663 294.700 L 127.066 300.000 139.209 300.000 L 151.352 300.000 158.876 292.514 L 166.400 285.028 166.391 252.814 L 166.381 220.600 164.563 218.694 C 162.670 216.710,162.000 216.582,162.000 218.204 C 162.000 223.318,159.194 226.830,156.922 224.559 L 155.881 223.517 156.156 217.085 L 156.431 210.653 153.927 208.126 C 151.488 205.665,147.980 204.554,146.698 205.836 M179.034 206.491 C 178.931 206.991,178.754 209.200,178.639 211.400 C 178.524 213.600,178.223 217.110,177.971 219.200 C 177.719 221.290,177.483 229.030,177.447 236.400 C 177.390 247.896,177.283 250.084,176.695 251.800 C 176.094 253.553,176.008 255.704,176.004 269.189 L 176.000 284.577 183.711 292.289 L 191.423 300.000 201.790 300.000 L 212.158 300.000 219.779 292.408 L 227.400 284.817 227.400 254.108 C 227.400 218.612,226.860 208.458,224.931 207.718 C 224.386 207.509,220.647 208.392,218.475 209.243 C 217.406 209.662,217.386 215.384,218.434 221.000 C 219.050 224.301,219.004 232.561,218.319 242.000 C 217.739 249.985,217.684 255.831,218.145 260.473 C 218.663 265.691,216.210 267.762,213.905 264.055 C 213.023 262.638,212.993 262.223,212.721 248.000 C 212.567 239.970,212.248 231.870,212.011 230.000 C 211.774 228.130,211.495 222.910,211.391 218.400 C 211.159 208.388,211.458 209.200,208.003 209.200 L 205.181 209.200 205.291 216.100 L 205.400 223.000 206.600 223.110 C 207.260 223.170,208.205 223.308,208.700 223.417 L 209.600 223.615 209.600 250.544 L 209.600 277.473 207.035 279.937 L 204.469 282.400 201.768 282.400 L 199.067 282.400 196.530 279.864 L 193.994 277.328 194.097 250.607 C 194.208 221.914,194.107 223.462,195.892 222.975 C 196.104 222.917,194.801 208.096,194.487 207.000 L 194.143 205.800 186.681 205.691 L 179.220 205.582 179.034 206.491 M297.379 206.111 C 297.271 206.392,297.232 210.307,297.291 214.811 L 297.400 223.000 299.400 223.200 L 301.400 223.400 301.400 252.600 L 301.400 281.800 300.200 281.910 C 296.925 282.209,297.200 281.378,297.200 290.965 C 297.200 298.392,297.283 299.546,297.833 299.757 C 299.810 300.516,351.973 299.998,352.392 299.215 C 352.665 298.704,352.775 294.275,352.706 286.515 L 352.600 274.600 343.800 274.600 L 335.000 274.600 334.800 278.161 C 334.638 281.049,334.470 281.768,333.915 281.961 C 332.816 282.344,319.966 282.126,319.557 281.717 C 319.342 281.502,319.231 277.217,319.293 271.573 L 319.400 261.800 322.800 261.800 L 326.200 261.800 326.400 264.000 L 326.600 266.200 335.200 266.200 L 343.800 266.200 343.905 252.500 C 344.001 239.998,343.829 237.384,343.043 239.433 C 342.909 239.781,342.800 243.836,342.800 248.446 C 342.800 258.447,342.055 261.200,339.347 261.200 C 337.546 261.200,337.083 259.719,337.510 255.317 C 337.927 251.010,337.805 242.600,337.293 240.400 L 336.967 239.000 331.784 239.000 L 326.600 239.000 326.483 241.000 C 326.337 243.484,325.720 244.000,322.897 244.000 C 319.006 244.000,319.200 244.543,319.200 233.666 C 319.200 223.864,319.304 223.200,320.837 223.200 C 322.019 223.200,322.408 216.150,321.653 208.400 L 321.400 205.800 317.405 205.800 L 313.411 205.800 312.850 206.971 C 312.483 207.735,312.174 210.584,311.960 215.171 C 311.081 234.000,310.023 238.232,306.644 236.424 C 304.778 235.425,304.405 232.189,305.164 223.600 C 305.502 219.780,304.964 207.883,304.390 206.500 C 303.948 205.433,297.771 205.090,297.379 206.111 M329.594 206.410 C 329.356 206.856,328.988 209.601,328.777 212.510 C 328.567 215.420,328.248 218.928,328.070 220.306 C 327.673 223.374,327.484 223.200,331.224 223.200 C 334.866 223.200,334.800 223.118,334.800 227.633 C 334.800 230.792,334.803 230.800,335.860 230.800 L 336.920 230.800 336.664 226.100 C 336.479 222.691,336.579 220.356,337.029 217.600 C 337.746 213.212,338.123 207.805,337.805 206.500 C 337.483 205.183,330.293 205.104,329.594 206.410 M344.525 206.100 C 344.348 206.375,344.258 209.041,344.325 212.025 C 344.430 216.729,343.579 227.775,342.974 229.551 C 342.463 231.049,344.808 231.567,349.307 230.951 L 351.126 230.701 351.309 227.051 C 351.410 225.043,351.805 221.610,352.187 219.423 C 352.892 215.383,352.944 207.160,352.270 206.100 C 352.055 205.761,350.806 205.600,348.400 205.600 C 345.996 205.600,344.743 205.762,344.525 206.100 M254.800 207.648 C 254.030 208.061,252.998 208.399,252.508 208.399 C 251.510 208.400,251.439 208.601,250.824 213.200 C 250.289 217.202,250.207 223.568,250.587 231.623 C 250.860 237.391,250.815 238.410,250.243 239.517 C 248.473 242.939,244.812 240.657,244.791 236.120 C 244.787 235.064,244.444 231.137,244.030 227.393 C 243.616 223.650,243.372 219.745,243.488 218.717 C 243.969 214.448,243.522 214.301,240.176 217.624 L 237.200 220.580 237.200 233.604 L 237.200 246.628 244.724 254.114 L 252.248 261.600 260.871 261.600 L 269.493 261.600 271.944 264.100 L 274.395 266.600 274.398 271.964 L 274.400 277.328 272.064 279.664 C 270.316 281.412,269.435 282.005,268.564 282.021 C 265.051 282.085,261.664 282.098,260.665 282.052 C 258.183 281.938,255.070 278.120,254.872 274.945 C 254.778 273.435,254.560 272.110,254.388 272.000 C 254.136 271.838,239.535 271.801,237.695 271.957 C 237.296 271.991,237.212 274.933,237.295 285.900 L 237.400 299.800 245.995 299.800 C 254.274 299.800,254.594 299.771,254.733 299.000 C 254.998 297.535,255.522 297.478,257.063 298.748 L 258.582 300.000 267.317 300.000 C 277.820 300.000,276.090 300.792,284.900 291.956 L 292.000 284.836 292.000 271.904 L 292.000 258.973 284.300 251.318 L 276.600 243.662 273.200 243.661 C 267.816 243.659,267.600 243.742,267.600 245.806 C 267.600 252.317,261.815 252.616,261.278 246.132 C 261.126 244.300,260.966 243.957,260.176 243.758 C 259.667 243.631,258.250 242.476,257.026 241.193 L 254.800 238.859 254.800 233.545 L 254.800 228.230 257.598 225.492 L 260.397 222.754 260.013 218.677 C 258.951 207.407,258.203 205.825,254.800 207.648 M290.276 211.811 C 287.687 214.928,286.698 220.482,287.356 228.200 L 287.800 233.400 289.800 233.400 L 291.800 233.400 291.906 221.900 C 291.965 215.575,291.875 210.413,291.706 210.429 C 291.538 210.445,290.894 211.067,290.276 211.811 M269.029 213.429 C 268.575 213.882,268.399 214.856,268.396 216.929 C 268.393 218.508,268.280 220.471,268.145 221.291 C 267.928 222.602,268.013 222.826,268.849 223.155 C 271.488 224.193,274.188 227.869,274.400 230.713 L 274.600 233.400 277.188 233.521 C 281.734 233.735,281.442 234.156,281.768 226.907 C 282.259 216.002,282.360 216.401,278.905 215.588 C 277.637 215.290,275.520 214.541,274.200 213.923 C 271.491 212.656,269.949 212.509,269.029 213.429 " stroke="none" fill="#080404" fill-rule="evenodd"></path><path id="path2" d="M196.059 79.029 C 193.955 79.594,192.612 80.416,184.600 86.040 C 182.400 87.585,179.250 89.771,177.600 90.899 C 175.950 92.027,171.090 95.406,166.800 98.407 C 162.510 101.409,157.688 104.726,156.085 105.778 C 154.483 106.830,152.713 108.291,152.154 109.025 C 150.890 110.682,150.279 111.045,139.200 116.719 C 131.092 120.871,125.685 124.140,110.303 134.192 C 107.939 135.736,103.154 138.853,99.669 141.118 C 94.190 144.678,93.093 145.570,91.566 147.702 C 88.745 151.643,86.076 156.377,84.973 159.400 C 84.411 160.940,83.808 162.470,83.633 162.800 C 83.373 163.291,81.803 163.444,74.958 163.644 C 63.805 163.970,65.214 163.397,47.600 174.779 C 19.528 192.919,20.516 192.128,19.203 197.486 C 17.849 203.010,21.178 209.659,26.123 211.308 C 26.437 211.412,26.540 213.382,26.465 217.829 C 26.260 229.885,29.429 236.614,36.243 238.595 L 38.343 239.206 38.568 241.303 C 38.691 242.456,38.749 249.880,38.696 257.800 L 38.600 272.200 37.036 274.337 C 32.987 279.868,32.542 301.121,36.355 306.800 C 39.904 312.084,39.764 312.067,78.200 311.902 C 112.536 311.754,110.972 311.872,114.403 309.160 C 115.525 308.273,116.568 307.604,116.721 307.674 C 116.875 307.743,118.031 308.498,119.290 309.350 C 122.883 311.782,124.416 311.987,139.080 311.994 C 157.183 312.003,156.424 312.248,164.995 303.627 C 168.298 300.304,170.902 298.000,171.354 298.000 C 171.802 298.000,174.622 300.465,178.159 303.947 C 186.600 312.256,185.863 312.006,201.920 311.986 C 216.629 311.967,217.461 311.768,222.376 307.088 C 225.293 304.310,225.147 304.317,227.185 306.876 C 231.243 311.973,231.335 311.989,256.926 311.989 C 280.473 311.989,281.004 311.935,284.683 309.167 C 287.071 307.370,287.583 307.276,288.638 308.441 C 291.786 311.921,292.611 312.001,325.120 311.994 C 358.711 311.986,358.731 311.984,362.225 307.403 C 365.718 302.823,366.125 273.193,362.769 267.753 C 361.769 266.132,361.770 266.131,363.355 263.670 C 364.820 261.396,366.155 256.738,366.585 252.400 C 366.726 250.970,367.179 247.280,367.590 244.200 C 368.001 241.120,368.455 237.340,368.598 235.800 C 368.742 234.260,369.282 230.660,369.799 227.800 C 370.316 224.940,370.960 220.440,371.230 217.800 C 371.786 212.356,372.193 211.403,374.112 211.043 C 378.839 210.156,382.419 203.000,380.989 197.297 C 380.363 194.803,378.312 191.200,377.518 191.200 C 377.327 191.200,375.508 189.535,373.476 187.500 C 369.440 183.459,368.930 183.133,365.435 182.362 C 362.957 181.816,362.875 181.770,348.400 172.776 C 338.297 166.498,337.009 165.979,330.876 165.702 L 326.352 165.498 325.276 164.109 C 324.334 162.893,312.103 154.552,290.731 140.549 C 287.472 138.414,285.563 136.902,285.383 136.314 C 284.519 133.498,282.221 131.695,269.400 123.776 C 265.220 121.194,258.740 117.190,255.000 114.878 C 251.197 112.526,247.388 109.842,246.358 108.788 C 245.345 107.751,243.365 106.139,241.958 105.206 C 239.662 103.682,231.845 98.255,221.200 90.794 C 202.258 77.519,202.044 77.418,196.059 79.029 M207.600 95.179 C 211.670 98.016,216.440 101.359,218.200 102.608 C 219.960 103.857,224.630 107.107,228.578 109.831 C 236.673 115.417,237.004 115.693,236.666 116.571 C 236.287 117.561,162.275 117.335,162.085 116.344 C 161.965 115.722,164.927 113.528,178.484 104.200 C 188.817 97.090,197.469 91.034,197.986 90.549 C 199.103 89.501,200.238 90.048,207.600 95.179 M182.506 118.746 C 182.835 119.075,181.749 121.315,176.988 130.125 C 175.040 133.730,174.467 134.487,173.546 134.671 C 172.024 134.975,168.745 139.960,160.306 154.800 C 159.565 156.102,152.960 167.248,146.130 178.721 C 144.518 181.428,143.200 183.723,143.200 183.821 C 143.200 183.920,146.958 184.000,151.551 184.000 L 159.901 184.000 160.699 182.100 C 161.137 181.055,161.821 179.300,162.217 178.200 C 163.365 175.015,162.738 175.200,172.406 175.200 C 182.382 175.200,181.721 174.891,180.967 179.200 C 178.477 193.416,177.214 199.673,176.706 200.300 C 176.280 200.827,106.789 201.078,105.433 200.557 C 104.369 200.149,104.626 199.748,110.093 193.290 C 118.218 183.694,117.875 184.000,120.486 184.000 L 122.696 184.000 131.648 172.758 C 136.572 166.575,141.444 160.500,142.476 159.258 C 143.886 157.562,158.780 138.926,161.284 135.726 C 161.516 135.430,161.495 134.951,161.229 134.455 C 160.881 133.804,161.004 133.419,161.900 132.354 C 164.686 129.043,161.206 132.372,156.625 137.400 C 150.669 143.938,151.365 143.536,145.933 143.572 C 139.353 143.615,139.282 143.516,143.186 139.713 C 148.454 134.583,146.641 132.988,139.703 136.648 C 134.767 139.253,123.892 147.395,122.805 149.300 L 121.949 150.800 126.898 150.800 C 133.356 150.800,133.477 150.880,132.619 154.579 C 132.269 156.090,131.914 159.011,131.830 161.070 L 131.678 164.814 128.578 168.307 C 121.464 176.324,110.672 188.000,110.377 188.000 C 110.202 188.000,108.650 188.656,106.929 189.457 C 103.274 191.159,95.194 194.594,86.300 198.227 L 80.000 200.800 68.609 200.800 L 57.218 200.800 56.568 199.807 L 55.918 198.815 54.224 199.807 C 52.533 200.798,52.511 200.800,41.665 200.800 C 28.959 200.800,28.643 200.675,33.500 197.566 C 34.985 196.615,38.720 194.193,41.800 192.183 C 44.880 190.173,52.045 185.530,57.722 181.864 L 68.045 175.200 76.822 175.200 C 87.300 175.200,87.168 175.089,81.677 179.300 C 79.474 180.989,79.200 181.354,79.200 182.600 L 79.200 184.000 84.300 183.990 L 89.400 183.980 93.731 182.078 C 99.992 179.327,108.800 171.664,108.800 168.967 L 108.800 167.600 102.049 167.600 C 93.882 167.600,93.908 167.615,95.495 163.952 C 99.116 155.590,100.299 154.241,108.800 148.777 C 116.467 143.848,120.325 141.352,127.000 137.000 C 134.966 131.807,135.978 131.216,142.459 127.970 C 145.991 126.202,151.338 123.377,154.340 121.693 C 159.186 118.976,160.092 118.607,162.400 118.416 C 166.258 118.096,182.116 118.356,182.506 118.746 M201.784 119.100 C 202.041 119.767,202.073 119.767,202.447 119.100 C 202.796 118.478,203.566 118.400,209.348 118.400 L 215.857 118.400 219.228 121.263 C 221.083 122.838,224.953 125.886,227.830 128.037 C 230.706 130.187,233.750 132.724,234.594 133.674 C 240.020 139.778,242.330 142.340,246.600 146.992 C 250.869 151.643,253.733 154.795,264.200 166.366 C 265.740 168.068,269.430 172.121,272.400 175.373 C 283.109 187.099,282.881 186.821,282.620 187.864 C 281.921 190.647,276.839 199.737,275.616 200.392 C 274.014 201.249,222.894 200.922,222.428 200.052 C 221.927 199.117,218.800 186.396,218.800 185.295 C 218.800 184.355,219.521 184.000,221.433 184.000 C 222.185 184.000,222.800 183.927,222.800 183.837 C 222.800 183.748,221.805 180.373,220.588 176.337 C 219.371 172.302,218.114 168.100,217.795 167.000 C 217.475 165.900,216.118 161.310,214.778 156.800 C 210.232 141.490,209.501 139.001,209.196 137.800 C 208.670 135.722,208.318 135.149,207.341 134.777 C 206.139 134.320,205.442 132.411,203.772 125.000 C 203.057 121.827,203.243 125.334,203.999 129.287 L 204.860 133.787 203.850 134.594 L 202.841 135.400 203.619 140.600 C 204.047 143.460,204.846 149.220,205.394 153.400 C 205.942 157.580,206.486 161.630,206.602 162.400 C 207.019 165.152,209.600 183.558,209.600 183.777 C 209.600 183.900,210.376 184.000,211.324 184.000 C 213.629 184.000,214.401 184.661,214.852 187.022 C 216.985 198.188,217.205 199.711,216.762 200.246 C 216.129 201.009,183.417 201.075,182.948 200.315 C 182.585 199.729,182.653 198.096,183.227 193.600 C 184.434 184.134,184.531 183.878,186.880 184.008 C 187.606 184.048,188.409 184.063,188.664 184.041 C 188.957 184.015,189.220 182.708,189.376 180.500 C 189.512 178.575,189.795 174.930,190.006 172.400 C 190.216 169.870,190.662 163.660,190.998 158.600 C 191.333 153.540,191.785 147.150,192.001 144.400 C 192.766 134.686,192.767 135.117,191.959 134.905 C 190.867 134.620,190.669 133.442,191.147 130.054 C 191.384 128.374,191.777 125.380,192.020 123.400 C 192.693 117.919,192.197 118.400,197.184 118.400 C 200.939 118.400,201.550 118.493,201.784 119.100 M242.557 120.660 C 244.561 121.903,248.000 124.037,250.200 125.404 C 252.400 126.771,257.350 129.828,261.200 132.199 C 265.050 134.570,268.830 136.917,269.600 137.413 C 270.370 137.909,271.765 138.787,272.700 139.363 C 275.697 141.209,275.102 141.600,269.299 141.600 L 264.197 141.600 260.799 139.158 C 254.958 134.962,254.640 134.800,252.208 134.800 C 250.512 134.800,250.000 134.939,250.000 135.400 C 250.000 135.730,250.135 136.001,250.300 136.003 C 250.465 136.005,254.650 139.333,259.600 143.400 C 268.428 150.653,270.038 151.722,270.875 150.885 C 271.164 150.596,270.852 150.182,269.855 149.534 C 266.536 147.377,267.399 146.800,273.943 146.800 L 279.438 146.800 291.019 154.439 C 312.635 168.697,315.398 170.598,315.528 171.300 C 315.649 171.948,315.053 172.000,307.500 172.000 L 299.341 172.000 296.400 169.800 C 293.875 167.911,293.210 167.600,291.696 167.600 C 289.356 167.600,289.433 167.706,295.061 172.264 C 297.734 174.429,302.086 177.959,304.731 180.110 L 309.542 184.019 316.457 183.910 L 323.372 183.800 319.658 181.085 C 314.615 177.399,314.584 177.421,324.969 177.292 L 333.673 177.184 336.536 178.937 C 347.927 185.908,367.549 198.167,368.537 198.928 C 370.990 200.820,371.358 200.799,334.876 200.812 L 300.600 200.824 293.100 193.115 C 284.756 184.538,284.433 184.000,287.633 184.000 C 288.798 184.000,288.645 183.773,285.249 180.467 C 283.516 178.780,274.741 170.189,265.749 161.375 C 239.279 135.429,238.838 135.012,237.667 134.873 C 236.995 134.792,235.586 133.756,233.863 132.073 C 229.491 127.803,221.600 119.274,221.600 118.818 C 221.600 118.540,224.506 118.400,230.257 118.400 L 238.913 118.400 242.557 120.660 M218.696 135.037 C 218.477 135.256,242.015 182.382,242.901 183.500 C 243.188 183.862,245.029 184.000,249.563 184.000 L 255.828 184.000 256.514 182.838 C 257.626 180.956,257.405 180.420,252.900 174.055 C 250.535 170.714,247.577 166.500,246.327 164.690 C 227.410 137.302,225.292 134.800,221.020 134.800 C 219.872 134.800,218.827 134.907,218.696 135.037 M180.238 149.300 C 179.588 158.358,179.057 163.022,178.645 163.294 C 177.731 163.898,169.593 163.647,169.347 163.007 C 169.159 162.517,173.852 154.150,178.270 147.100 C 179.969 144.388,180.544 145.031,180.238 149.300 M57.783 205.700 C 57.892 206.195,57.969 207.050,57.955 207.600 C 57.940 208.150,58.133 210.490,58.382 212.800 C 58.632 215.110,58.828 221.521,58.818 227.046 C 58.798 238.030,59.093 239.448,61.326 239.122 C 63.255 238.840,63.528 237.388,63.788 226.000 C 64.052 214.447,64.660 206.086,65.294 205.300 C 65.567 204.962,66.961 204.800,69.602 204.800 C 74.365 204.800,73.989 203.977,73.989 214.400 C 73.989 224.061,74.003 224.000,71.833 224.000 C 70.913 224.000,69.944 224.216,69.680 224.480 C 68.981 225.179,69.000 242.154,69.700 242.671 C 70.104 242.969,78.847 243.093,82.707 242.856 L 83.615 242.800 83.507 233.500 L 83.400 224.200 82.200 224.069 C 79.979 223.827,79.962 223.675,81.033 213.686 C 81.370 210.544,81.533 207.619,81.396 207.186 C 80.714 205.039,81.251 204.800,86.747 204.800 C 90.175 204.800,91.997 204.957,92.320 205.280 C 92.931 205.891,92.956 212.532,92.368 217.942 C 91.861 222.603,92.379 224.400,94.231 224.400 C 95.956 224.400,96.735 220.928,97.885 208.104 C 98.176 204.858,98.353 204.748,103.059 204.885 L 107.000 205.000 107.000 214.400 L 107.000 223.800 105.000 224.000 L 103.000 224.200 102.897 252.700 L 102.795 281.200 104.365 281.200 C 107.359 281.200,107.200 280.664,107.200 290.763 C 107.200 297.290,107.065 299.975,106.720 300.320 C 106.212 300.828,81.115 301.049,79.833 300.557 C 79.281 300.345,79.200 299.125,79.200 291.000 C 79.200 280.638,79.038 281.200,82.033 281.200 L 83.600 281.200 83.600 272.080 C 83.600 260.996,84.317 262.000,76.400 262.000 C 68.507 262.000,69.200 261.091,69.200 271.447 C 69.200 281.265,69.187 281.198,71.143 281.206 C 73.829 281.217,73.787 281.081,73.922 290.302 C 73.996 295.359,73.882 299.059,73.632 299.717 L 73.220 300.800 60.184 300.800 C 51.962 300.800,46.862 300.647,46.374 300.386 C 45.644 299.995,45.600 299.461,45.600 291.000 C 45.600 280.949,45.524 281.200,48.576 281.200 L 50.005 281.200 49.903 252.700 L 49.800 224.200 48.205 224.070 C 45.551 223.854,45.600 224.041,45.600 214.218 C 45.600 209.331,45.720 205.213,45.867 205.067 C 46.710 204.224,57.585 204.802,57.783 205.700 M139.988 205.385 C 140.540 206.050,140.622 217.331,140.105 221.400 L 139.800 223.800 137.200 223.918 C 134.631 224.035,134.572 224.064,132.300 226.306 L 130.000 228.575 130.000 252.711 L 130.000 276.848 132.058 279.024 L 134.116 281.200 139.203 281.200 L 144.291 281.200 146.145 279.217 L 148.000 277.234 148.000 252.696 L 148.000 228.157 146.561 226.778 C 144.502 224.806,144.433 224.406,145.075 218.200 C 145.393 215.120,145.777 210.890,145.927 208.800 L 146.200 205.000 148.950 204.881 L 151.699 204.761 154.474 207.536 L 157.248 210.310 156.973 216.655 C 156.716 222.576,156.750 223.064,157.476 223.953 C 159.079 225.918,160.682 223.594,161.167 218.605 C 161.483 215.356,162.216 215.251,165.048 218.048 L 167.200 220.173 167.200 252.587 L 167.200 285.001 159.900 292.464 C 150.841 301.725,153.190 300.800,138.737 300.800 L 126.622 300.800 118.711 292.889 L 110.800 284.978 110.800 269.339 C 110.800 255.781,110.888 253.468,111.460 251.950 C 112.019 250.467,112.131 248.154,112.193 236.800 C 112.295 218.072,111.970 219.551,117.141 214.288 C 119.525 211.861,121.645 210.027,121.989 210.092 C 122.919 210.270,123.202 214.002,123.209 226.141 C 123.216 237.058,123.334 238.016,124.780 238.789 C 127.452 240.219,127.972 238.218,128.229 225.512 C 128.350 219.510,128.619 213.396,128.825 211.923 C 129.031 210.451,129.200 208.462,129.200 207.503 C 129.200 206.545,129.416 205.544,129.680 205.280 C 130.427 204.533,139.356 204.624,139.988 205.385 M194.726 205.500 C 195.321 206.674,195.957 210.786,196.196 215.000 C 196.321 217.200,196.531 220.031,196.662 221.291 C 196.891 223.484,196.857 223.598,195.863 223.976 L 194.825 224.371 194.713 247.085 C 194.651 259.578,194.658 271.482,194.729 273.539 L 194.859 277.278 196.952 279.439 L 199.045 281.600 201.787 281.600 L 204.528 281.600 206.855 279.273 L 209.181 276.947 208.957 250.973 C 208.702 221.434,208.902 224.000,206.862 224.000 C 204.442 224.000,204.368 223.742,204.491 215.748 L 204.600 208.600 207.600 208.497 C 212.009 208.347,211.761 207.846,212.046 217.485 C 212.182 222.058,212.526 227.870,212.812 230.400 C 213.133 233.246,213.306 239.119,213.265 245.800 C 213.176 260.234,213.730 264.407,215.824 265.068 C 217.173 265.494,217.289 264.616,217.397 253.149 C 217.456 246.907,217.708 238.234,217.957 233.876 C 218.340 227.176,218.317 225.328,217.805 221.906 C 217.472 219.680,217.200 215.838,217.200 213.369 L 217.200 208.878 220.096 207.998 C 226.119 206.169,226.056 206.134,226.962 211.800 C 228.028 218.469,228.209 226.244,228.000 256.551 L 227.800 285.592 220.619 292.781 C 211.832 301.578,213.588 300.865,201.061 300.720 L 190.782 300.600 183.191 292.979 L 175.600 285.358 175.600 268.853 C 175.600 256.409,175.723 252.132,176.099 251.474 C 176.465 250.831,176.613 247.112,176.656 237.400 C 176.688 230.140,176.936 222.130,177.207 219.600 C 177.478 217.070,177.812 212.930,177.950 210.400 C 178.087 207.870,178.346 205.575,178.524 205.300 C 179.097 204.414,194.271 204.601,194.726 205.500 M304.794 205.589 C 305.654 207.197,306.546 223.592,305.836 224.741 C 305.200 225.771,305.510 234.438,306.211 235.212 C 308.120 237.322,309.585 235.606,310.049 230.715 C 310.243 228.672,310.605 225.110,310.854 222.800 C 311.103 220.490,311.348 216.260,311.399 213.400 C 311.473 209.266,311.647 207.872,312.249 206.600 L 313.006 205.000 317.603 205.000 L 322.200 205.000 322.554 211.914 C 322.996 220.549,322.647 223.663,321.200 224.002 L 320.200 224.236 320.200 233.618 L 320.200 243.000 322.800 243.000 L 325.400 243.000 325.600 240.800 L 325.800 238.600 331.794 238.600 L 337.789 238.600 338.121 240.800 C 338.304 242.010,338.355 246.330,338.235 250.400 C 338.115 254.470,338.014 258.250,338.009 258.800 C 338.001 259.933,338.990 260.856,339.856 260.523 C 341.920 259.731,342.371 256.420,342.394 241.900 L 342.400 238.400 343.605 238.400 L 344.810 238.400 344.705 252.700 L 344.600 267.000 335.650 267.108 C 325.494 267.230,325.600 267.259,325.600 264.351 L 325.600 262.400 324.100 262.354 C 323.275 262.328,322.330 262.279,322.000 262.244 C 320.013 262.032,319.978 262.210,320.093 271.918 L 320.200 281.000 326.970 281.110 C 334.819 281.237,334.385 281.469,334.394 277.143 C 334.399 274.728,334.533 274.035,335.033 273.843 C 336.292 273.359,352.213 273.573,352.720 274.080 C 353.073 274.433,353.200 277.902,353.200 287.200 C 353.200 296.498,353.073 299.967,352.720 300.320 C 351.897 301.143,297.856 300.999,297.029 300.171 C 296.496 299.639,296.400 298.233,296.400 291.000 C 296.400 281.366,296.448 281.200,299.231 281.200 L 300.805 281.200 300.703 252.700 L 300.600 224.200 299.005 224.070 C 298.128 223.999,297.183 223.752,296.905 223.521 C 296.201 222.937,296.178 205.982,296.880 205.280 C 297.768 204.392,304.290 204.647,304.794 205.589 M338.324 209.000 C 338.392 211.200,338.223 214.080,337.949 215.400 C 337.675 216.720,337.439 220.716,337.425 224.280 C 337.398 231.146,337.236 231.773,335.546 231.534 C 334.685 231.412,334.591 231.185,334.501 229.000 C 334.447 227.680,334.303 226.015,334.183 225.300 L 333.964 224.000 330.527 224.000 L 327.090 224.000 327.352 221.100 C 327.497 219.505,327.790 215.743,328.005 212.740 C 328.594 204.480,328.398 204.739,333.960 204.887 L 338.200 205.000 338.324 209.000 M352.824 205.645 C 353.384 206.692,353.077 219.461,352.406 223.000 C 352.156 224.320,351.963 226.551,351.977 227.957 C 352.013 231.505,351.881 231.600,346.938 231.600 C 341.946 231.600,342.189 231.936,342.838 225.942 C 343.108 223.444,343.383 217.916,343.450 213.658 C 343.530 208.548,343.729 205.727,344.035 205.358 C 344.877 204.343,352.256 204.583,352.824 205.645 M172.847 205.700 C 172.972 207.011,172.098 210.400,171.636 210.400 C 171.166 210.400,170.738 207.386,171.038 206.193 C 171.297 205.159,172.758 204.761,172.847 205.700 M258.271 206.900 C 260.085 208.915,261.969 222.538,260.589 223.656 C 260.219 223.955,258.946 225.081,257.759 226.158 L 255.600 228.116 255.600 233.402 L 255.600 238.687 257.216 240.524 C 258.105 241.534,259.462 242.587,260.230 242.865 C 261.679 243.389,261.800 243.633,262.141 246.731 C 262.681 251.621,266.334 251.124,266.770 246.102 C 267.048 242.906,267.108 242.877,273.155 242.971 L 277.251 243.034 285.025 250.838 L 292.800 258.641 292.800 271.810 L 292.800 284.978 284.889 292.889 L 276.978 300.800 267.720 300.800 L 258.461 300.800 257.273 299.800 C 255.903 298.647,255.600 298.572,255.600 299.386 C 255.600 300.822,238.907 301.646,237.071 300.300 C 236.446 299.842,236.397 298.595,236.494 285.600 L 236.600 271.400 246.000 271.400 L 255.400 271.400 255.517 274.274 C 255.633 277.135,255.643 277.156,257.650 279.174 L 259.666 281.200 264.520 281.200 L 269.375 281.200 271.487 279.114 L 273.600 277.027 273.600 271.850 L 273.600 266.672 271.264 264.336 L 268.928 262.000 260.364 261.996 L 251.800 261.992 244.100 254.332 L 236.400 246.672 236.400 233.490 L 236.400 220.308 239.469 217.154 C 243.578 212.932,244.808 213.131,244.174 217.916 C 244.037 218.952,244.205 222.140,244.549 225.000 C 244.892 227.860,245.295 232.054,245.445 234.321 C 245.735 238.714,246.449 240.400,248.020 240.400 C 249.838 240.400,250.149 238.876,249.799 231.676 C 249.038 216.006,250.053 207.604,252.709 207.597 C 253.309 207.596,254.340 207.237,255.000 206.800 C 256.552 205.772,257.275 205.794,258.271 206.900 M280.785 207.782 C 281.385 208.505,281.000 209.200,280.000 209.200 C 279.101 209.200,278.645 208.582,278.952 207.781 C 279.238 207.035,280.165 207.035,280.785 207.782 M292.706 220.833 C 292.827 235.093,292.989 234.400,289.538 234.400 C 286.849 234.400,286.758 234.106,286.688 225.277 C 286.622 216.928,287.107 214.643,289.600 211.540 C 290.262 210.716,290.984 209.568,291.204 208.989 C 292.327 206.035,292.599 208.180,292.706 220.833 M274.109 213.121 C 275.479 213.738,277.820 214.569,279.311 214.969 C 282.925 215.937,282.851 215.697,282.537 225.411 C 282.228 235.002,282.568 234.400,277.454 234.400 C 273.889 234.400,273.600 234.138,273.600 230.911 C 273.600 228.055,271.791 225.464,268.815 224.057 L 267.400 223.389 267.530 218.594 C 267.715 211.784,268.917 210.785,274.109 213.121 " stroke="none" fill="#fa0404" fill-rule="evenodd"></path><path id="path3" d="M195.771 78.368 C 193.987 78.869,191.913 80.046,187.971 82.797 C 182.745 86.442,168.642 96.272,163.000 100.201 C 161.460 101.274,158.655 103.184,156.767 104.446 C 154.879 105.709,152.807 107.342,152.163 108.075 C 150.387 110.098,149.366 110.714,139.000 116.015 C 133.720 118.716,127.330 122.272,124.800 123.918 C 122.270 125.565,118.940 127.726,117.400 128.720 C 115.860 129.715,112.620 131.823,110.200 133.405 C 107.780 134.988,102.895 138.180,99.344 140.499 C 94.191 143.865,92.568 145.149,91.308 146.858 C 88.220 151.048,85.722 155.445,84.017 159.692 L 82.850 162.600 74.725 162.845 C 64.555 163.152,63.873 163.345,56.872 167.910 C 53.862 169.873,48.250 173.511,44.400 175.996 C 19.502 192.068,19.809 191.816,18.533 197.135 C 17.223 202.592,19.327 207.922,23.947 210.852 L 25.752 211.997 25.803 218.899 C 25.893 231.063,29.048 237.328,36.030 239.208 C 37.916 239.716,37.807 238.594,37.767 257.009 L 37.733 272.219 36.278 274.125 C 35.477 275.174,34.626 276.790,34.385 277.716 C 34.145 278.642,33.781 280.030,33.577 280.800 C 32.149 286.170,33.440 303.403,35.523 306.793 C 38.889 312.268,41.539 312.880,60.822 312.634 C 68.840 312.532,76.120 312.473,77.000 312.503 C 83.320 312.715,108.541 312.500,109.964 312.222 C 110.939 312.032,112.849 311.110,114.233 310.163 L 116.737 308.448 118.950 310.033 C 122.198 312.359,123.387 312.521,138.371 312.685 C 157.095 312.890,156.893 312.954,165.794 304.016 C 168.651 301.147,171.174 298.800,171.400 298.800 C 171.627 298.800,173.970 300.971,176.606 303.625 C 185.640 312.718,185.787 312.772,201.668 312.788 C 216.332 312.804,217.852 312.436,222.903 307.653 C 224.170 306.454,225.261 305.546,225.329 305.636 C 230.790 312.926,230.414 312.844,257.600 312.678 C 282.410 312.527,281.001 312.724,286.591 308.638 C 286.924 308.395,287.713 308.755,289.004 309.741 C 292.863 312.687,291.613 312.581,323.992 312.708 C 359.004 312.844,359.600 312.760,363.198 307.191 C 366.587 301.946,366.805 273.337,363.500 267.595 L 362.646 266.110 363.962 264.060 C 366.048 260.809,367.177 255.142,368.835 239.600 C 369.286 235.373,369.702 232.616,371.187 224.000 C 371.395 222.790,371.783 219.820,372.049 217.400 C 372.580 212.554,372.743 212.164,374.377 211.805 C 383.388 209.826,384.677 195.769,376.429 189.422 C 375.131 188.424,373.701 187.011,373.251 186.283 C 371.982 184.230,369.350 182.583,366.063 181.786 C 363.522 181.170,361.603 180.131,351.863 174.101 C 337.083 164.952,336.725 164.800,329.949 164.800 L 326.748 164.800 324.868 162.870 C 323.834 161.809,320.831 159.525,318.194 157.796 C 287.233 137.494,286.628 137.069,285.272 134.666 C 283.594 131.693,283.179 131.411,254.000 113.428 C 251.250 111.733,248.100 109.455,247.000 108.366 C 245.900 107.277,242.300 104.537,239.000 102.277 C 233.375 98.425,219.618 88.882,215.600 86.045 C 203.122 77.235,201.731 76.696,195.771 78.368 M202.838 79.010 C 205.186 79.618,205.991 80.135,221.200 90.794 C 231.845 98.255,239.662 103.682,241.958 105.206 C 243.365 106.139,245.345 107.751,246.358 108.788 C 247.388 109.842,251.197 112.526,255.000 114.878 C 258.740 117.190,265.220 121.194,269.400 123.776 C 282.221 131.695,284.519 133.498,285.383 136.314 C 285.563 136.902,287.472 138.414,290.731 140.549 C 312.103 154.552,324.334 162.893,325.276 164.109 L 326.352 165.498 330.876 165.702 C 337.009 165.979,338.297 166.498,348.400 172.776 C 362.875 181.770,362.957 181.816,365.435 182.362 C 368.930 183.133,369.440 183.459,373.476 187.500 C 375.508 189.535,377.327 191.200,377.518 191.200 C 378.312 191.200,380.363 194.803,380.989 197.297 C 382.419 203.000,378.839 210.156,374.112 211.043 C 372.193 211.403,371.786 212.356,371.230 217.800 C 370.960 220.440,370.316 224.940,369.799 227.800 C 369.282 230.660,368.742 234.260,368.598 235.800 C 368.455 237.340,368.001 241.120,367.590 244.200 C 367.179 247.280,366.726 250.970,366.585 252.400 C 366.155 256.738,364.820 261.396,363.355 263.670 C 361.770 266.131,361.769 266.132,362.769 267.753 C 366.125 273.193,365.718 302.823,362.225 307.403 C 358.731 311.984,358.711 311.986,325.120 311.994 C 292.611 312.001,291.786 311.921,288.638 308.441 C 287.583 307.276,287.071 307.370,284.683 309.167 C 281.004 311.935,280.473 311.989,256.926 311.989 C 231.335 311.989,231.243 311.973,227.185 306.876 C 225.147 304.317,225.293 304.310,222.376 307.088 C 217.461 311.768,216.629 311.967,201.920 311.986 C 185.863 312.006,186.600 312.256,178.159 303.947 C 174.622 300.465,171.802 298.000,171.354 298.000 C 170.902 298.000,168.298 300.304,164.995 303.627 C 156.424 312.248,157.183 312.003,139.080 311.994 C 124.416 311.987,122.883 311.782,119.290 309.350 C 118.031 308.498,116.875 307.743,116.721 307.674 C 116.568 307.604,115.525 308.273,114.403 309.160 C 110.972 311.872,112.536 311.754,78.200 311.902 C 39.764 312.067,39.904 312.084,36.355 306.800 C 32.542 301.121,32.987 279.868,37.036 274.337 L 38.600 272.200 38.696 257.800 C 38.749 249.880,38.691 242.456,38.568 241.303 L 38.343 239.206 36.243 238.595 C 29.429 236.614,26.260 229.885,26.465 217.829 C 26.540 213.382,26.437 211.412,26.123 211.308 C 21.178 209.659,17.849 203.010,19.203 197.486 C 20.516 192.128,19.528 192.919,47.600 174.779 C 65.214 163.397,63.805 163.970,74.958 163.644 C 81.803 163.444,83.373 163.291,83.633 162.800 C 83.808 162.470,84.411 160.940,84.973 159.400 C 86.076 156.377,88.745 151.643,91.566 147.702 C 93.093 145.570,94.190 144.678,99.669 141.118 C 103.154 138.853,107.939 135.736,110.303 134.192 C 125.685 124.140,131.092 120.871,139.200 116.719 C 150.279 111.045,150.890 110.682,152.154 109.025 C 152.713 108.291,154.483 106.830,156.085 105.778 C 157.688 104.726,162.510 101.409,166.800 98.407 C 171.090 95.406,175.950 92.027,177.600 90.899 C 179.250 89.771,182.400 87.585,184.600 86.040 C 192.612 80.416,193.955 79.594,196.059 79.029 C 198.854 78.277,199.996 78.273,202.838 79.010 M178.270 147.100 C 173.852 154.150,169.159 162.517,169.347 163.007 C 169.593 163.647,177.731 163.898,178.645 163.294 C 179.057 163.022,179.588 158.358,180.238 149.300 C 180.544 145.031,179.969 144.388,178.270 147.100 M179.454 149.500 C 179.332 150.545,179.129 153.020,179.002 155.000 C 178.875 156.980,178.667 159.545,178.540 160.700 L 178.308 162.800 174.166 162.800 C 169.379 162.800,169.533 163.201,172.430 158.270 C 179.076 146.956,179.865 145.971,179.454 149.500 M45.867 205.067 C 45.720 205.213,45.600 209.331,45.600 214.218 C 45.600 224.041,45.551 223.854,48.205 224.070 L 49.800 224.200 49.903 252.700 L 50.005 281.200 48.576 281.200 C 45.524 281.200,45.600 280.949,45.600 291.000 C 45.600 299.461,45.644 299.995,46.374 300.386 C 46.862 300.647,51.962 300.800,60.184 300.800 L 73.220 300.800 73.632 299.717 C 73.882 299.059,73.996 295.359,73.922 290.302 C 73.787 281.081,73.829 281.217,71.143 281.206 C 69.187 281.198,69.200 281.265,69.200 271.447 C 69.200 261.091,68.507 262.000,76.400 262.000 C 84.317 262.000,83.600 260.996,83.600 272.080 L 83.600 281.200 82.033 281.200 C 79.038 281.200,79.200 280.638,79.200 291.000 C 79.200 299.125,79.281 300.345,79.833 300.557 C 81.115 301.049,106.212 300.828,106.720 300.320 C 107.065 299.975,107.200 297.290,107.200 290.763 C 107.200 280.664,107.359 281.200,104.365 281.200 L 102.795 281.200 102.897 252.700 L 103.000 224.200 105.000 224.000 L 107.000 223.800 107.000 214.400 L 107.000 205.000 103.059 204.885 C 98.353 204.748,98.176 204.858,97.885 208.104 C 96.735 220.928,95.956 224.400,94.231 224.400 C 92.379 224.400,91.861 222.603,92.368 217.942 C 92.956 212.532,92.931 205.891,92.320 205.280 C 91.997 204.957,90.175 204.800,86.747 204.800 C 81.251 204.800,80.714 205.039,81.396 207.186 C 81.533 207.619,81.370 210.544,81.033 213.686 C 79.962 223.675,79.979 223.827,82.200 224.069 L 83.400 224.200 83.507 233.500 L 83.615 242.800 82.707 242.856 C 78.847 243.093,70.104 242.969,69.700 242.671 C 69.000 242.154,68.981 225.179,69.680 224.480 C 69.944 224.216,70.913 224.000,71.833 224.000 C 74.003 224.000,73.989 224.061,73.989 214.400 C 73.989 203.977,74.365 204.800,69.602 204.800 C 66.961 204.800,65.567 204.962,65.294 205.300 C 64.660 206.086,64.052 214.447,63.788 226.000 C 63.528 237.388,63.255 238.840,61.326 239.122 C 59.093 239.448,58.798 238.030,58.818 227.046 C 58.828 221.521,58.632 215.110,58.382 212.800 C 58.133 210.490,57.940 208.150,57.955 207.600 C 58.029 204.729,58.183 204.800,51.859 204.800 C 48.710 204.800,46.013 204.920,45.867 205.067 M129.680 205.280 C 129.416 205.544,129.200 206.545,129.200 207.503 C 129.200 208.462,129.031 210.451,128.825 211.923 C 128.619 213.396,128.350 219.510,128.229 225.512 C 127.972 238.218,127.452 240.219,124.780 238.789 C 123.334 238.016,123.216 237.058,123.209 226.141 C 123.202 214.002,122.919 210.270,121.989 210.092 C 121.645 210.027,119.525 211.861,117.141 214.288 C 111.970 219.551,112.295 218.072,112.193 236.800 C 112.131 248.154,112.019 250.467,111.460 251.950 C 110.888 253.468,110.800 255.781,110.800 269.339 L 110.800 284.978 118.711 292.889 L 126.622 300.800 138.737 300.800 C 153.190 300.800,150.841 301.725,159.900 292.464 L 167.200 285.001 167.200 252.587 L 167.200 220.173 165.048 218.048 C 162.216 215.251,161.483 215.356,161.167 218.605 C 160.682 223.594,159.079 225.918,157.476 223.953 C 156.750 223.064,156.716 222.576,156.973 216.655 L 157.248 210.310 154.474 207.536 L 151.699 204.761 148.950 204.881 L 146.200 205.000 145.927 208.800 C 145.777 210.890,145.393 215.120,145.075 218.200 C 144.433 224.406,144.502 224.806,146.561 226.778 L 148.000 228.157 148.000 252.696 L 148.000 277.234 146.145 279.217 L 144.291 281.200 139.203 281.200 L 134.116 281.200 132.058 279.024 L 130.000 276.848 130.000 252.711 L 130.000 228.575 132.300 226.306 C 134.572 224.064,134.631 224.035,137.200 223.918 L 139.800 223.800 140.105 221.400 C 140.622 217.331,140.540 206.050,139.988 205.385 C 139.356 204.624,130.427 204.533,129.680 205.280 M178.524 205.300 C 178.346 205.575,178.087 207.870,177.950 210.400 C 177.812 212.930,177.478 217.070,177.207 219.600 C 176.936 222.130,176.688 230.140,176.656 237.400 C 176.613 247.112,176.465 250.831,176.099 251.474 C 175.723 252.132,175.600 256.409,175.600 268.853 L 175.600 285.358 183.191 292.979 L 190.782 300.600 201.061 300.720 C 213.588 300.865,211.832 301.578,220.619 292.781 L 227.800 285.592 228.000 256.551 C 228.209 226.244,228.028 218.469,226.962 211.800 C 226.056 206.134,226.119 206.169,220.096 207.998 L 217.200 208.878 217.200 213.369 C 217.200 215.838,217.472 219.680,217.805 221.906 C 218.317 225.328,218.340 227.176,217.957 233.876 C 217.708 238.234,217.456 246.907,217.397 253.149 C 217.289 264.616,217.173 265.494,215.824 265.068 C 213.730 264.407,213.176 260.234,213.265 245.800 C 213.306 239.119,213.133 233.246,212.812 230.400 C 212.526 227.870,212.182 222.058,212.046 217.485 C 211.761 207.846,212.009 208.347,207.600 208.497 L 204.600 208.600 204.491 215.748 C 204.368 223.742,204.442 224.000,206.862 224.000 C 208.902 224.000,208.702 221.434,208.957 250.973 L 209.181 276.947 206.855 279.273 L 204.528 281.600 201.787 281.600 L 199.045 281.600 196.952 279.439 L 194.859 277.278 194.729 273.539 C 194.658 271.482,194.651 259.578,194.713 247.085 L 194.825 224.371 195.863 223.976 C 196.857 223.598,196.891 223.484,196.662 221.291 C 196.531 220.031,196.321 217.200,196.196 215.000 C 195.957 210.786,195.321 206.674,194.726 205.500 C 194.271 204.601,179.097 204.414,178.524 205.300 M296.880 205.280 C 296.178 205.982,296.201 222.937,296.905 223.521 C 297.183 223.752,298.128 223.999,299.005 224.070 L 300.600 224.200 300.703 252.700 L 300.805 281.200 299.231 281.200 C 296.448 281.200,296.400 281.366,296.400 291.000 C 296.400 298.233,296.496 299.639,297.029 300.171 C 297.856 300.999,351.897 301.143,352.720 300.320 C 353.073 299.967,353.200 296.498,353.200 287.200 C 353.200 277.902,353.073 274.433,352.720 274.080 C 352.213 273.573,336.292 273.359,335.033 273.843 C 334.533 274.035,334.399 274.728,334.394 277.143 C 334.385 281.469,334.819 281.237,326.970 281.110 L 320.200 281.000 320.093 271.918 C 319.978 262.210,320.013 262.032,322.000 262.244 C 322.330 262.279,323.275 262.328,324.100 262.354 L 325.600 262.400 325.600 264.351 C 325.600 267.259,325.494 267.230,335.650 267.108 L 344.600 267.000 344.705 252.700 L 344.810 238.400 343.605 238.400 L 342.400 238.400 342.394 241.900 C 342.371 256.420,341.920 259.731,339.856 260.523 C 338.990 260.856,338.001 259.933,338.009 258.800 C 338.014 258.250,338.115 254.470,338.235 250.400 C 338.355 246.330,338.304 242.010,338.121 240.800 L 337.789 238.600 331.794 238.600 L 325.800 238.600 325.600 240.800 L 325.400 243.000 322.800 243.000 L 320.200 243.000 320.200 233.618 L 320.200 224.236 321.200 224.002 C 322.647 223.663,322.996 220.549,322.554 211.914 L 322.200 205.000 317.603 205.000 L 313.006 205.000 312.249 206.600 C 311.647 207.872,311.473 209.266,311.399 213.400 C 311.348 216.260,311.103 220.490,310.854 222.800 C 310.605 225.110,310.243 228.672,310.049 230.715 C 309.585 235.606,308.120 237.322,306.211 235.212 C 305.510 234.438,305.200 225.771,305.836 224.741 C 306.546 223.592,305.654 207.197,304.794 205.589 C 304.290 204.647,297.768 204.392,296.880 205.280 M329.322 205.287 C 328.577 206.248,328.395 207.279,328.005 212.740 C 327.790 215.743,327.497 219.505,327.352 221.100 L 327.090 224.000 330.527 224.000 L 333.964 224.000 334.183 225.300 C 334.303 226.015,334.447 227.680,334.501 229.000 C 334.591 231.185,334.685 231.412,335.546 231.534 C 337.236 231.773,337.398 231.146,337.425 224.280 C 337.439 220.716,337.675 216.720,337.949 215.400 C 338.223 214.080,338.392 211.200,338.324 209.000 L 338.200 205.000 333.960 204.887 C 330.872 204.805,329.611 204.914,329.322 205.287 M344.035 205.358 C 343.729 205.727,343.530 208.548,343.450 213.658 C 343.383 217.916,343.108 223.444,342.838 225.942 C 342.189 231.936,341.946 231.600,346.938 231.600 C 351.881 231.600,352.013 231.505,351.977 227.957 C 351.963 226.551,352.156 224.320,352.406 223.000 C 353.077 219.461,353.384 206.692,352.824 205.645 C 352.256 204.583,344.877 204.343,344.035 205.358 M171.038 206.193 C 170.738 207.386,171.166 210.400,171.636 210.400 C 172.098 210.400,172.972 207.011,172.847 205.700 C 172.758 204.761,171.297 205.159,171.038 206.193 M56.993 206.100 C 57.549 207.753,58.129 218.772,58.093 226.973 C 58.040 238.853,58.930 241.579,62.170 239.457 C 64.097 238.194,64.268 236.977,64.847 220.400 C 65.050 214.570,65.321 208.848,65.448 207.686 L 65.679 205.571 69.340 205.686 L 73.000 205.800 73.108 214.479 L 73.215 223.158 71.108 223.279 L 69.000 223.400 68.893 233.443 L 68.787 243.487 70.693 243.689 C 74.565 244.100,83.672 243.730,84.041 243.148 C 84.603 242.260,84.491 224.251,83.920 223.680 C 83.656 223.416,82.947 223.200,82.344 223.200 C 80.756 223.200,80.754 223.176,81.625 215.561 C 82.063 211.733,82.371 207.970,82.311 207.200 L 82.200 205.800 87.000 205.800 L 91.800 205.800 91.922 209.200 C 91.989 211.070,91.863 214.604,91.641 217.053 C 91.183 222.121,91.512 224.062,92.993 225.032 C 94.546 226.050,96.173 224.823,96.865 222.111 C 97.238 220.650,97.398 219.418,98.386 210.400 C 98.947 205.285,98.694 205.542,103.036 205.684 L 106.600 205.800 106.587 214.400 L 106.574 223.000 104.795 223.128 C 101.783 223.343,101.999 221.066,102.006 252.549 C 102.013 283.106,101.939 282.144,104.273 282.195 C 105.113 282.213,106.024 282.367,106.299 282.537 C 106.919 282.921,106.982 298.112,106.368 299.260 C 105.874 300.182,80.989 300.429,80.080 299.520 C 79.383 298.823,79.402 283.051,80.100 282.513 C 80.375 282.302,81.263 282.118,82.073 282.105 C 84.460 282.066,84.400 282.320,84.400 272.209 C 84.400 260.264,85.413 261.600,76.357 261.600 L 68.800 261.600 68.800 271.800 L 68.800 282.000 70.200 282.050 C 70.970 282.078,71.780 282.145,72.000 282.200 C 72.220 282.255,72.584 282.322,72.808 282.350 C 73.075 282.383,73.178 285.409,73.108 291.100 L 73.000 299.800 59.800 299.800 L 46.600 299.800 46.600 291.000 L 46.600 282.200 48.108 282.140 C 48.937 282.107,49.883 281.977,50.210 281.851 C 50.731 281.652,50.792 277.971,50.703 252.512 L 50.600 223.400 48.500 223.279 L 46.400 223.158 46.400 214.646 C 46.400 209.964,46.520 206.013,46.667 205.867 C 47.188 205.346,56.813 205.563,56.993 206.100 M139.390 205.984 C 139.755 206.574,139.783 216.192,139.430 219.900 L 139.117 223.200 136.692 223.200 L 134.267 223.200 131.667 225.800 C 130.237 227.230,129.052 228.400,129.033 228.401 C 128.582 228.408,129.757 206.717,130.251 205.918 C 130.533 205.462,139.106 205.524,139.390 205.984 M153.927 208.126 L 156.431 210.653 156.156 217.085 L 155.881 223.517 156.922 224.559 C 159.194 226.830,162.000 223.318,162.000 218.204 C 162.000 216.582,162.670 216.710,164.563 218.694 L 166.381 220.600 166.391 252.814 L 166.400 285.028 158.876 292.514 L 151.352 300.000 139.209 300.000 L 127.066 300.000 121.663 294.700 C 118.691 291.785,115.211 288.355,113.929 287.077 L 111.600 284.755 111.600 268.951 C 111.600 257.041,111.723 252.932,112.100 252.274 C 112.461 251.643,112.674 247.283,112.865 236.600 C 113.207 217.447,112.792 219.337,117.716 214.537 L 121.755 210.600 122.101 212.200 C 122.292 213.080,122.494 219.136,122.550 225.657 C 122.638 235.914,122.741 237.650,123.315 238.527 C 125.142 241.315,128.241 239.468,128.835 235.235 L 129.093 233.400 129.184 235.800 C 129.234 237.120,129.320 246.570,129.377 256.800 C 129.500 279.357,129.377 277.273,130.686 278.829 C 133.264 281.893,134.176 282.239,139.408 282.137 L 144.131 282.045 146.466 279.735 L 148.800 277.425 148.800 252.828 L 148.800 228.230 147.148 226.547 C 145.195 224.557,145.114 223.439,146.238 214.022 C 146.591 211.065,146.786 208.066,146.671 207.358 C 146.165 204.240,150.534 204.703,153.927 208.126 M194.487 207.000 C 194.801 208.096,196.104 222.917,195.892 222.975 C 194.107 223.462,194.208 221.914,194.097 250.607 L 193.994 277.328 196.530 279.864 L 199.067 282.400 201.768 282.400 L 204.469 282.400 207.035 279.937 L 209.600 277.473 209.600 250.544 L 209.600 223.615 208.700 223.417 C 208.205 223.308,207.260 223.170,206.600 223.110 L 205.400 223.000 205.291 216.100 L 205.181 209.200 208.003 209.200 C 211.458 209.200,211.159 208.388,211.391 218.400 C 211.495 222.910,211.774 228.130,212.011 230.000 C 212.248 231.870,212.567 239.970,212.721 248.000 C 212.993 262.223,213.023 262.638,213.905 264.055 C 216.210 267.762,218.663 265.691,218.145 260.473 C 217.684 255.831,217.739 249.985,218.319 242.000 C 219.004 232.561,219.050 224.301,218.434 221.000 C 217.386 215.384,217.406 209.662,218.475 209.243 C 220.647 208.392,224.386 207.509,224.931 207.718 C 226.860 208.458,227.400 218.612,227.400 254.108 L 227.400 284.817 219.779 292.408 L 212.158 300.000 201.790 300.000 L 191.423 300.000 183.711 292.289 L 176.000 284.577 176.004 269.189 C 176.008 255.704,176.094 253.553,176.695 251.800 C 177.283 250.084,177.390 247.896,177.447 236.400 C 177.483 229.030,177.719 221.290,177.971 219.200 C 178.223 217.110,178.524 213.600,178.639 211.400 C 178.754 209.200,178.931 206.991,179.034 206.491 L 179.220 205.582 186.681 205.691 L 194.143 205.800 194.487 207.000 M304.390 206.500 C 304.964 207.883,305.502 219.780,305.164 223.600 C 304.405 232.189,304.778 235.425,306.644 236.424 C 310.023 238.232,311.081 234.000,311.960 215.171 C 312.174 210.584,312.483 207.735,312.850 206.971 L 313.411 205.800 317.405 205.800 L 321.400 205.800 321.653 208.400 C 322.408 216.150,322.019 223.200,320.837 223.200 C 319.304 223.200,319.200 223.864,319.200 233.666 C 319.200 244.543,319.006 244.000,322.897 244.000 C 325.720 244.000,326.337 243.484,326.483 241.000 L 326.600 239.000 331.784 239.000 L 336.967 239.000 337.293 240.400 C 337.805 242.600,337.927 251.010,337.510 255.317 C 337.083 259.719,337.546 261.200,339.347 261.200 C 342.055 261.200,342.800 258.447,342.800 248.446 C 342.800 243.836,342.909 239.781,343.043 239.433 C 343.829 237.384,344.001 239.998,343.905 252.500 L 343.800 266.200 335.200 266.200 L 326.600 266.200 326.400 264.000 L 326.200 261.800 322.800 261.800 L 319.400 261.800 319.293 271.573 C 319.231 277.217,319.342 281.502,319.557 281.717 C 319.966 282.126,332.816 282.344,333.915 281.961 C 334.470 281.768,334.638 281.049,334.800 278.161 L 335.000 274.600 343.800 274.600 L 352.600 274.600 352.706 286.515 C 352.775 294.275,352.665 298.704,352.392 299.215 C 351.973 299.998,299.810 300.516,297.833 299.757 C 297.283 299.546,297.200 298.392,297.200 290.965 C 297.200 281.378,296.925 282.209,300.200 281.910 L 301.400 281.800 301.400 252.600 L 301.400 223.400 299.400 223.200 L 297.400 223.000 297.291 214.811 C 297.232 210.307,297.271 206.392,297.379 206.111 C 297.771 205.090,303.948 205.433,304.390 206.500 M337.805 206.500 C 338.123 207.805,337.746 213.212,337.029 217.600 C 336.579 220.356,336.479 222.691,336.664 226.100 L 336.920 230.800 335.860 230.800 C 334.803 230.800,334.800 230.792,334.800 227.633 C 334.800 223.118,334.866 223.200,331.224 223.200 C 327.484 223.200,327.673 223.374,328.070 220.306 C 328.248 218.928,328.567 215.420,328.777 212.510 C 329.293 205.394,329.143 205.600,333.806 205.600 C 337.393 205.600,337.596 205.646,337.805 206.500 M352.270 206.100 C 352.944 207.160,352.892 215.383,352.187 219.423 C 351.805 221.610,351.410 225.043,351.309 227.051 L 351.126 230.701 349.307 230.951 C 344.808 231.567,342.463 231.049,342.974 229.551 C 343.579 227.775,344.430 216.729,344.325 212.025 C 344.174 205.323,343.998 205.600,348.400 205.600 C 350.806 205.600,352.055 205.761,352.270 206.100 M255.000 206.800 C 254.340 207.237,253.309 207.596,252.709 207.597 C 250.053 207.604,249.038 216.006,249.799 231.676 C 250.149 238.876,249.838 240.400,248.020 240.400 C 246.449 240.400,245.735 238.714,245.445 234.321 C 245.295 232.054,244.892 227.860,244.549 225.000 C 244.205 222.140,244.037 218.952,244.174 217.916 C 244.808 213.131,243.578 212.932,239.469 217.154 L 236.400 220.308 236.400 233.490 L 236.400 246.672 244.100 254.332 L 251.800 261.992 260.364 261.996 L 268.928 262.000 271.264 264.336 L 273.600 266.672 273.600 271.850 L 273.600 277.027 271.487 279.114 L 269.375 281.200 264.520 281.200 L 259.666 281.200 257.650 279.174 C 255.643 277.156,255.633 277.135,255.517 274.274 L 255.400 271.400 246.000 271.400 L 236.600 271.400 236.494 285.600 C 236.397 298.595,236.446 299.842,237.071 300.300 C 238.907 301.646,255.600 300.822,255.600 299.386 C 255.600 298.572,255.903 298.647,257.273 299.800 L 258.461 300.800 267.720 300.800 L 276.978 300.800 284.889 292.889 L 292.800 284.978 292.800 271.810 L 292.800 258.641 285.025 250.838 L 277.251 243.034 273.155 242.971 C 267.108 242.877,267.048 242.906,266.770 246.102 C 266.334 251.124,262.681 251.621,262.141 246.731 C 261.800 243.633,261.679 243.389,260.230 242.865 C 259.462 242.587,258.105 241.534,257.216 240.524 L 255.600 238.687 255.600 233.402 L 255.600 228.116 257.759 226.158 C 258.946 225.081,260.219 223.955,260.589 223.656 C 261.310 223.072,261.247 220.426,260.366 214.200 C 259.309 206.736,257.942 204.851,255.000 206.800 M258.264 208.290 C 258.981 210.007,259.469 212.905,260.013 218.677 L 260.397 222.754 257.598 225.492 L 254.800 228.230 254.800 233.545 L 254.800 238.859 257.026 241.193 C 258.250 242.476,259.667 243.631,260.176 243.758 C 260.966 243.957,261.126 244.300,261.278 246.132 C 261.815 252.616,267.600 252.317,267.600 245.806 C 267.600 243.742,267.816 243.659,273.200 243.661 L 276.600 243.662 284.300 251.318 L 292.000 258.973 292.000 271.904 L 292.000 284.836 284.900 291.956 C 276.090 300.792,277.820 300.000,267.317 300.000 L 258.582 300.000 257.063 298.748 C 255.522 297.478,254.998 297.535,254.733 299.000 C 254.594 299.771,254.274 299.800,245.995 299.800 L 237.400 299.800 237.295 285.900 C 237.212 274.933,237.296 271.991,237.695 271.957 C 239.535 271.801,254.136 271.838,254.388 272.000 C 254.560 272.110,254.778 273.435,254.872 274.945 C 255.070 278.120,258.183 281.938,260.665 282.052 C 261.664 282.098,265.051 282.085,268.564 282.021 C 269.435 282.005,270.316 281.412,272.064 279.664 L 274.400 277.328 274.398 271.964 L 274.395 266.600 271.944 264.100 L 269.493 261.600 260.871 261.600 L 252.248 261.600 244.724 254.114 L 237.200 246.628 237.200 233.604 L 237.200 220.580 240.176 217.624 C 243.522 214.301,243.969 214.448,243.488 218.717 C 243.372 219.745,243.616 223.650,244.030 227.393 C 244.444 231.137,244.787 235.064,244.791 236.120 C 244.812 240.657,248.473 242.939,250.243 239.517 C 250.815 238.410,250.860 237.391,250.587 231.623 C 250.207 223.568,250.289 217.202,250.824 213.200 C 251.439 208.601,251.510 208.400,252.508 208.399 C 252.998 208.399,254.030 208.061,254.800 207.648 C 256.956 206.493,257.559 206.604,258.264 208.290 M278.952 207.781 C 278.645 208.582,279.101 209.200,280.000 209.200 C 281.000 209.200,281.385 208.505,280.785 207.782 C 280.165 207.035,279.238 207.035,278.952 207.781 M291.204 208.989 C 290.984 209.568,290.262 210.716,289.600 211.540 C 287.107 214.643,286.622 216.928,286.688 225.277 C 286.758 234.106,286.849 234.400,289.538 234.400 C 292.989 234.400,292.827 235.093,292.706 220.833 C 292.599 208.180,292.327 206.035,291.204 208.989 M291.906 221.900 L 291.800 233.400 289.800 233.400 L 287.800 233.400 287.356 228.200 C 286.622 219.596,288.799 210.703,291.706 210.429 C 291.875 210.413,291.965 215.575,291.906 221.900 M268.652 212.900 C 267.718 213.747,267.653 214.080,267.530 218.594 L 267.400 223.389 268.815 224.057 C 271.791 225.464,273.600 228.055,273.600 230.911 C 273.600 234.138,273.889 234.400,277.454 234.400 C 282.568 234.400,282.228 235.002,282.537 225.411 C 282.851 215.697,282.925 215.937,279.311 214.969 C 277.820 214.569,275.479 213.738,274.109 213.121 C 271.095 211.765,269.955 211.719,268.652 212.900 M274.200 213.923 C 275.520 214.541,277.637 215.290,278.905 215.588 C 282.360 216.401,282.259 216.002,281.768 226.907 C 281.442 234.156,281.734 233.735,277.188 233.521 L 274.600 233.400 274.400 230.713 C 274.188 227.869,271.488 224.193,268.849 223.155 C 268.013 222.826,267.928 222.602,268.145 221.291 C 268.280 220.471,268.393 218.508,268.396 216.929 C 268.402 212.500,269.711 211.823,274.200 213.923 " stroke="none" fill="#9f0404" fill-rule="evenodd"></path><path id="path4" d="M197.986 90.549 C 197.469 91.034,188.817 97.090,178.484 104.200 C 164.927 113.528,161.965 115.722,162.085 116.344 C 162.275 117.335,236.287 117.561,236.666 116.571 C 237.004 115.693,236.673 115.417,228.578 109.831 C 224.630 107.107,219.960 103.857,218.200 102.608 C 200.736 90.216,199.272 89.343,197.986 90.549 M204.423 93.931 C 206.940 95.653,210.890 98.383,213.200 99.997 C 216.625 102.391,223.607 107.249,228.142 110.395 C 233.396 114.040,235.600 115.702,235.600 116.020 C 235.600 116.494,163.737 116.545,163.443 116.070 C 163.331 115.889,164.446 114.891,165.920 113.852 C 173.281 108.665,193.488 94.565,196.800 92.304 C 199.602 90.391,199.087 90.281,204.423 93.931 M162.400 118.416 C 160.092 118.607,159.186 118.976,154.340 121.693 C 151.338 123.377,145.991 126.202,142.459 127.970 C 135.978 131.216,134.966 131.807,127.000 137.000 C 120.325 141.352,116.467 143.848,108.800 148.777 C 100.299 154.241,99.116 155.590,95.495 163.952 C 93.908 167.615,93.882 167.600,102.049 167.600 L 108.800 167.600 108.800 168.967 C 108.800 171.664,99.992 179.327,93.731 182.078 L 89.400 183.980 84.300 183.990 L 79.200 184.000 79.200 182.600 C 79.200 181.354,79.474 180.989,81.677 179.300 C 87.168 175.089,87.300 175.200,76.822 175.200 L 68.045 175.200 57.722 181.864 C 52.045 185.530,44.880 190.173,41.800 192.183 C 38.720 194.193,34.985 196.615,33.500 197.566 C 28.643 200.675,28.959 200.800,41.665 200.800 C 52.511 200.800,52.533 200.798,54.224 199.807 L 55.918 198.815 56.568 199.807 L 57.218 200.800 68.609 200.800 L 80.000 200.800 86.300 198.227 C 95.194 194.594,103.274 191.159,106.929 189.457 C 108.650 188.656,110.202 188.000,110.377 188.000 C 110.672 188.000,121.464 176.324,128.578 168.307 L 131.678 164.814 131.830 161.070 C 131.914 159.011,132.269 156.090,132.619 154.579 C 133.477 150.880,133.356 150.800,126.898 150.800 L 121.949 150.800 122.805 149.300 C 123.892 147.395,134.767 139.253,139.703 136.648 C 146.641 132.988,148.454 134.583,143.186 139.713 C 139.282 143.516,139.353 143.615,145.933 143.572 C 151.365 143.536,150.669 143.938,156.625 137.400 C 161.206 132.372,164.686 129.043,161.900 132.354 C 161.004 133.419,160.881 133.804,161.229 134.455 C 161.495 134.951,161.516 135.430,161.284 135.726 C 158.780 138.926,143.886 157.562,142.476 159.258 C 141.444 160.500,136.572 166.575,131.648 172.758 L 122.696 184.000 120.486 184.000 C 117.875 184.000,118.218 183.694,110.093 193.290 C 104.626 199.748,104.369 200.149,105.433 200.557 C 106.789 201.078,176.280 200.827,176.706 200.300 C 177.214 199.673,178.477 193.416,180.967 179.200 C 181.721 174.891,182.382 175.200,172.406 175.200 C 162.738 175.200,163.365 175.015,162.217 178.200 C 161.821 179.300,161.137 181.055,160.699 182.100 L 159.901 184.000 151.551 184.000 C 146.958 184.000,143.200 183.920,143.200 183.821 C 143.200 183.723,144.518 181.428,146.130 178.721 C 152.960 167.248,159.565 156.102,160.306 154.800 C 168.745 139.960,172.024 134.975,173.546 134.671 C 174.467 134.487,175.040 133.730,176.988 130.125 C 181.749 121.315,182.835 119.075,182.506 118.746 C 182.116 118.356,166.258 118.096,162.400 118.416 M192.658 119.100 C 192.550 119.485,192.263 121.420,192.020 123.400 C 191.777 125.380,191.384 128.374,191.147 130.054 C 190.669 133.442,190.867 134.620,191.959 134.905 C 192.767 135.117,192.766 134.686,192.001 144.400 C 191.785 147.150,191.333 153.540,190.998 158.600 C 190.662 163.660,190.216 169.870,190.006 172.400 C 189.795 174.930,189.512 178.575,189.376 180.500 C 189.220 182.708,188.957 184.015,188.664 184.041 C 188.409 184.063,187.606 184.048,186.880 184.008 C 184.531 183.878,184.434 184.134,183.227 193.600 C 182.653 198.096,182.585 199.729,182.948 200.315 C 183.417 201.075,216.129 201.009,216.762 200.246 C 217.205 199.711,216.985 198.188,214.852 187.022 C 214.401 184.661,213.629 184.000,211.324 184.000 C 210.376 184.000,209.600 183.900,209.600 183.777 C 209.600 183.558,207.019 165.152,206.602 162.400 C 206.486 161.630,205.942 157.580,205.394 153.400 C 204.846 149.220,204.047 143.460,203.619 140.600 L 202.841 135.400 203.850 134.594 L 204.860 133.787 203.999 129.287 C 203.243 125.334,203.057 121.827,203.772 125.000 C 205.442 132.411,206.139 134.320,207.341 134.777 C 208.318 135.149,208.670 135.722,209.196 137.800 C 209.501 139.001,210.232 141.490,214.778 156.800 C 216.118 161.310,217.475 165.900,217.795 167.000 C 218.114 168.100,219.371 172.302,220.588 176.337 C 221.805 180.373,222.800 183.748,222.800 183.837 C 222.800 183.927,222.185 184.000,221.433 184.000 C 219.521 184.000,218.800 184.355,218.800 185.295 C 218.800 186.396,221.927 199.117,222.428 200.052 C 222.894 200.922,274.014 201.249,275.616 200.392 C 276.839 199.737,281.921 190.647,282.620 187.864 C 282.881 186.821,283.109 187.099,272.400 175.373 C 269.430 172.121,265.740 168.068,264.200 166.366 C 253.733 154.795,250.869 151.643,246.600 146.992 C 242.330 142.340,240.020 139.778,234.594 133.674 C 233.750 132.724,230.706 130.187,227.830 128.037 C 224.953 125.886,221.083 122.838,219.228 121.263 L 215.857 118.400 209.348 118.400 C 203.566 118.400,202.796 118.478,202.447 119.100 C 202.073 119.767,202.041 119.767,201.784 119.100 C 201.550 118.493,200.939 118.400,197.184 118.400 C 193.401 118.400,192.829 118.489,192.658 119.100 M221.600 118.818 C 221.600 119.274,229.491 127.803,233.863 132.073 C 235.586 133.756,236.995 134.792,237.667 134.873 C 238.838 135.012,239.279 135.429,265.749 161.375 C 274.741 170.189,283.516 178.780,285.249 180.467 C 288.645 183.773,288.798 184.000,287.633 184.000 C 284.433 184.000,284.756 184.538,293.100 193.115 L 300.600 200.824 334.876 200.812 C 371.358 200.799,370.990 200.820,368.537 198.928 C 367.549 198.167,347.927 185.908,336.536 178.937 L 333.673 177.184 324.969 177.292 C 314.584 177.421,314.615 177.399,319.658 181.085 L 323.372 183.800 316.457 183.910 L 309.542 184.019 304.731 180.110 C 302.086 177.959,297.734 174.429,295.061 172.264 C 289.433 167.706,289.356 167.600,291.696 167.600 C 293.210 167.600,293.875 167.911,296.400 169.800 L 299.341 172.000 307.500 172.000 C 315.053 172.000,315.649 171.948,315.528 171.300 C 315.398 170.598,312.635 168.697,291.019 154.439 L 279.438 146.800 273.943 146.800 C 267.399 146.800,266.536 147.377,269.855 149.534 C 270.852 150.182,271.164 150.596,270.875 150.885 C 270.038 151.722,268.428 150.653,259.600 143.400 C 254.650 139.333,250.465 136.005,250.300 136.003 C 250.135 136.001,250.000 135.730,250.000 135.400 C 250.000 134.939,250.512 134.800,252.208 134.800 C 254.640 134.800,254.958 134.962,260.799 139.158 L 264.197 141.600 269.299 141.600 C 275.102 141.600,275.697 141.209,272.700 139.363 C 271.765 138.787,270.370 137.909,269.600 137.413 C 268.830 136.917,265.050 134.570,261.200 132.199 C 257.350 129.828,252.400 126.771,250.200 125.404 C 248.000 124.037,244.561 121.903,242.557 120.660 L 238.913 118.400 230.257 118.400 C 224.506 118.400,221.600 118.540,221.600 118.818 M165.698 119.295 C 165.830 119.689,166.086 119.689,166.951 119.295 C 168.127 118.759,172.001 118.609,171.998 119.100 C 171.997 119.265,171.500 119.940,170.894 120.600 C 170.288 121.260,165.780 126.251,160.875 131.692 C 150.062 143.687,151.240 142.800,146.135 142.800 C 141.175 142.800,140.987 142.586,143.817 140.168 C 150.212 134.704,147.489 131.896,139.672 135.894 C 131.464 140.090,120.314 149.443,121.408 151.214 C 121.542 151.430,123.927 151.600,126.824 151.600 L 132.000 151.600 132.000 152.780 C 132.000 153.429,131.823 154.824,131.606 155.880 C 131.390 156.936,131.139 159.378,131.049 161.308 L 130.885 164.815 127.360 168.708 C 125.422 170.848,122.745 173.770,121.412 175.200 C 120.079 176.630,117.641 179.327,115.994 181.194 C 110.987 186.869,110.994 186.864,104.400 189.767 C 100.990 191.269,97.660 192.740,97.000 193.037 C 96.340 193.335,92.470 194.977,88.400 196.686 L 81.000 199.794 69.000 199.797 L 57.000 199.800 56.872 198.900 C 56.705 197.725,55.792 197.758,54.164 199.000 L 52.853 200.000 42.650 200.000 C 37.039 200.000,32.364 199.865,32.263 199.700 C 32.068 199.382,33.047 198.688,40.400 193.925 C 42.930 192.286,47.790 189.138,51.200 186.929 C 54.610 184.720,59.814 181.357,62.764 179.456 L 68.128 176.000 76.064 176.000 C 85.050 176.000,84.867 175.910,81.371 178.600 C 78.712 180.646,78.239 181.437,78.469 183.452 L 78.600 184.600 83.800 184.715 L 89.000 184.829 93.800 182.795 C 101.772 179.418,110.221 171.332,109.532 167.740 C 109.402 167.063,108.795 166.983,102.395 166.800 C 94.212 166.566,94.644 167.041,97.483 161.403 C 101.001 154.418,99.597 155.629,118.044 143.668 C 121.210 141.616,126.519 138.172,129.842 136.016 C 133.165 133.860,139.105 130.472,143.042 128.487 C 146.979 126.503,152.630 123.516,155.600 121.850 C 161.150 118.736,165.173 117.719,165.698 119.295 M181.600 119.324 C 181.600 121.113,174.148 133.716,172.834 134.150 C 171.372 134.632,171.176 134.932,160.409 153.200 C 154.767 162.774,144.941 179.382,143.545 181.706 C 141.602 184.940,141.262 184.801,151.100 184.794 C 161.286 184.787,160.247 185.215,162.251 180.200 L 163.849 176.200 171.813 176.091 C 181.282 175.962,180.811 175.853,180.378 178.071 C 180.192 179.022,179.309 183.940,178.417 189.000 C 177.524 194.060,176.701 198.605,176.589 199.100 L 176.385 200.000 141.192 200.000 C 120.665 200.000,106.000 199.850,106.000 199.641 C 106.000 199.291,107.134 197.898,114.600 189.073 L 118.200 184.817 120.449 184.809 C 122.952 184.799,123.536 184.326,127.600 179.026 C 128.590 177.734,129.946 176.030,130.613 175.239 C 131.281 174.447,132.305 173.170,132.888 172.400 C 133.472 171.630,135.403 169.200,137.179 167.000 C 138.955 164.800,141.171 162.036,142.104 160.858 C 143.037 159.679,144.430 157.945,145.200 157.003 C 145.970 156.061,147.500 154.146,148.600 152.748 C 150.306 150.580,153.964 146.029,159.317 139.414 C 161.960 136.148,162.922 134.641,162.460 134.487 C 161.579 134.193,162.043 133.376,165.242 129.600 C 167.013 127.510,169.634 124.405,171.067 122.700 C 172.500 120.994,173.971 119.425,174.336 119.212 C 175.396 118.593,181.600 118.689,181.600 119.324 M201.171 119.545 C 201.390 119.955,201.932 122.340,202.376 124.845 C 202.819 127.350,203.357 130.300,203.572 131.400 C 203.921 133.185,203.879 133.459,203.181 133.949 C 202.128 134.689,202.158 135.316,203.833 147.433 C 204.621 153.135,205.431 159.015,205.633 160.500 C 205.835 161.985,206.167 164.415,206.371 165.900 C 206.574 167.385,206.937 170.040,207.177 171.800 C 207.417 173.560,207.927 177.160,208.310 179.800 L 209.007 184.600 211.257 184.719 L 213.506 184.837 213.926 186.519 C 214.158 187.443,214.551 189.370,214.800 190.800 C 215.049 192.230,215.415 194.120,215.612 195.000 C 215.809 195.880,216.083 197.365,216.220 198.300 L 216.470 200.000 200.059 200.000 C 189.976 200.000,183.555 199.852,183.409 199.615 C 183.204 199.283,184.484 188.255,185.025 185.700 C 185.192 184.912,185.464 184.800,187.216 184.800 C 189.840 184.800,189.787 184.969,190.571 174.000 C 191.320 163.517,191.755 157.778,192.798 144.615 C 193.567 134.901,193.512 134.000,192.151 134.000 C 191.848 134.000,191.600 133.652,191.600 133.228 C 191.600 131.156,193.293 119.770,193.669 119.317 C 194.410 118.424,200.673 118.615,201.171 119.545 M219.075 122.063 C 221.234 123.857,225.070 126.891,227.600 128.804 C 232.268 132.334,233.682 133.765,246.200 147.615 C 249.060 150.779,252.660 154.732,254.200 156.399 C 255.740 158.066,257.633 160.143,258.408 161.015 C 259.182 161.887,264.312 167.532,269.808 173.560 C 282.189 187.141,281.964 186.882,281.984 187.556 C 282.007 188.353,278.627 195.008,276.881 197.600 L 275.400 199.800 249.423 199.903 C 235.136 199.960,223.293 199.853,223.106 199.666 C 222.705 199.265,219.496 186.268,219.560 185.307 C 219.571 185.138,220.440 184.910,221.490 184.800 C 223.833 184.555,223.868 185.173,220.923 175.000 C 219.712 170.820,218.574 166.860,218.394 166.200 C 218.214 165.540,217.678 163.740,217.204 162.200 C 215.820 157.702,213.961 151.499,213.608 150.200 C 210.358 138.250,209.082 134.686,207.895 134.238 C 206.656 133.770,206.781 134.116,204.642 125.220 C 203.878 122.040,203.341 119.295,203.450 119.120 C 203.558 118.944,206.235 118.800,209.399 118.800 L 215.150 118.800 219.075 122.063 M247.000 124.247 C 251.840 127.243,259.625 132.053,264.300 134.938 C 268.975 137.822,272.800 140.321,272.800 140.491 C 272.800 140.661,270.894 140.800,268.564 140.800 L 264.328 140.800 259.508 137.400 L 254.688 134.000 251.768 134.000 C 246.835 134.000,246.781 133.917,257.117 142.341 C 260.261 144.903,263.521 147.540,264.361 148.200 C 265.201 148.860,266.527 149.904,267.307 150.519 C 269.030 151.879,271.094 152.285,272.176 151.479 C 272.918 150.925,272.880 150.851,271.291 149.750 C 268.569 147.865,268.967 147.599,274.500 147.606 L 279.400 147.612 292.238 156.106 C 299.298 160.778,307.169 165.950,309.728 167.600 C 312.287 169.250,314.385 170.735,314.391 170.900 C 314.396 171.065,311.012 171.200,306.872 171.200 L 299.344 171.200 296.772 169.204 C 294.270 167.261,294.127 167.207,291.500 167.204 C 287.679 167.199,287.811 167.405,295.600 173.632 C 297.910 175.479,300.160 177.298,300.600 177.673 C 301.040 178.049,303.195 179.806,305.389 181.578 L 309.378 184.800 317.123 184.800 C 325.972 184.800,325.930 184.825,321.973 181.895 C 320.558 180.848,318.860 179.546,318.200 179.003 L 317.000 178.014 325.600 178.107 L 334.200 178.200 345.000 184.939 C 350.940 188.645,356.430 192.086,357.200 192.586 C 357.970 193.085,360.715 194.790,363.300 196.374 C 365.885 197.958,368.000 199.422,368.000 199.627 C 368.000 199.855,354.928 200.000,334.458 200.000 L 300.917 200.000 293.958 192.987 C 286.354 185.324,285.984 184.800,288.171 184.800 C 290.955 184.800,293.713 187.719,256.038 150.800 C 237.969 133.094,238.974 134.015,237.710 134.006 C 236.786 134.000,223.133 120.537,222.871 119.374 C 222.762 118.891,223.965 118.800,230.471 118.800 L 238.200 118.801 247.000 124.247 M217.767 134.541 C 217.590 135.004,241.397 182.890,242.505 184.300 C 242.941 184.855,255.450 185.031,256.222 184.494 C 256.925 184.004,258.341 180.628,258.023 180.200 C 257.860 179.980,254.783 175.570,251.186 170.400 C 247.590 165.230,243.466 159.343,242.023 157.318 C 240.580 155.294,238.485 152.324,237.366 150.718 C 228.778 138.398,227.838 137.268,224.011 134.671 C 222.752 133.817,218.083 133.720,217.767 134.541 M225.566 136.712 C 227.939 138.556,232.812 145.123,246.327 164.690 C 247.577 166.500,250.535 170.714,252.900 174.055 C 257.405 180.420,257.626 180.956,256.514 182.838 L 255.828 184.000 249.563 184.000 C 245.029 184.000,243.188 183.862,242.901 183.500 C 242.015 182.382,218.477 135.256,218.696 135.037 C 219.714 134.020,223.194 134.868,225.566 136.712 " stroke="none" fill="#fc5656" fill-rule="evenodd"></path></g></svg>