<?xml version="1.0" standalone="no"?>
<!DOCTYPE svg PUBLIC "-//W3C//DTD SVG 20010904//EN"
 "http://www.w3.org/TR/2001/REC-SVG-20010904/DTD/svg10.dtd">
<svg version="1.0" xmlns="http://www.w3.org/2000/svg"
 width="500.000000pt" height="500.000000pt" viewBox="0 0 500.000000 500.000000"
 preserveAspectRatio="xMidYMid meet">

<g transform="translate(0.000000,500.000000) scale(0.100000,-0.100000)"
fill="#000000" stroke="none">
<path d="M2448 4049 c-38 -9 -462 -293 -548 -367 -25 -22 -103 -70 -175 -107
-178 -93 -551 -335 -598 -388 -20 -23 -55 -76 -77 -118 l-40 -77 -108 -3
c-125 -5 -87 14 -438 -214 -259 -168 -258 -167 -261 -310 -3 -143 2 -169 48
-217 37 -39 39 -44 39 -106 0 -79 24 -174 53 -214 12 -17 41 -41 64 -55 l43
-25 0 -114 c0 -108 -2 -117 -27 -156 l-28 -42 0 -236 0 -237 27 -39 c57 -82
36 -79 538 -79 418 0 447 1 472 19 27 18 29 18 55 0 25 -17 53 -19 224 -22
249 -5 261 -2 356 91 l73 70 62 -60 c105 -100 98 -98 293 -101 187 -4 236 3
285 44 l30 26 35 -30 c46 -41 82 -44 410 -40 243 3 274 5 299 21 28 18 29 18
69 0 38 -17 74 -18 447 -18 l406 0 37 25 c21 14 47 45 60 70 21 43 22 58 24
310 1 146 7 285 12 310 6 25 15 88 21 140 6 52 20 160 32 240 17 119 25 148
42 163 63 54 77 73 91 120 10 35 12 62 7 82 -5 17 -5 43 -1 59 5 17 3 50 -4
79 -9 43 -22 61 -85 123 -66 65 -112 94 -155 94 -4 0 -38 20 -75 43 -221 143
-241 153 -329 163 -40 5 -66 14 -83 29 -14 13 -124 88 -245 168 -142 93 -227
156 -240 176 -11 17 -36 42 -55 55 -44 30 -317 199 -347 215 -12 6 -41 28 -65
49 -24 20 -128 96 -231 167 -104 72 -214 148 -245 171 -45 32 -135 69 -154 63
-2 -1 -20 -5 -40 -10z m170 -261 c64 -45 162 -113 217 -151 55 -38 107 -75
115 -83 12 -12 -50 -14 -453 -14 -257 0 -467 3 -467 8 1 8 450 321 463 321 5
1 61 -36 125 -81z m-470 -286 c-7 -9 -69 -79 -138 -154 l-124 -138 -63 0 c-35
0 -63 2 -63 4 0 2 18 22 40 44 47 47 50 62 13 62 -54 0 -291 -165 -293 -202 0
-5 32 -8 71 -8 71 0 71 0 65 -25 -3 -13 -9 -53 -13 -87 l-6 -63 -126 -139
c-138 -152 -120 -140 -368 -242 l-132 -54 -150 0 c-103 0 -151 4 -153 11 -3 9
-10 9 -26 0 -14 -8 -68 -11 -159 -9 l-137 3 237 153 237 152 100 0 c55 0 100
-3 100 -7 0 -3 -18 -23 -41 -44 -23 -21 -39 -44 -37 -51 9 -26 107 -22 179 8
78 31 194 128 201 169 l5 25 -88 0 c-106 0 -108 3 -51 99 36 62 43 68 242 198
113 74 261 163 330 198 69 35 143 75 165 88 33 20 54 25 118 25 72 1 77 -1 65
-16z m132 11 c-2 -22 -101 -187 -119 -197 -30 -16 -384 -616 -367 -622 7 -3
56 -3 110 -2 l98 3 22 55 22 55 107 3 c97 2 107 1 107 -15 0 -19 -23 -154 -41
-240 l-10 -53 -445 0 c-244 0 -444 3 -444 6 0 3 34 46 76 94 62 72 81 89 107
92 28 3 58 36 279 312 136 169 245 312 242 317 -3 5 30 52 73 104 l78 95 53 0
c28 0 52 -3 52 -7z m248 -40 c20 -95 25 -145 14 -152 -7 -4 1 -88 24 -261 19
-140 38 -280 42 -310 7 -52 8 -55 38 -58 30 -3 31 -5 43 -75 7 -40 15 -82 18
-94 l5 -23 -212 0 -213 0 7 73 c11 106 14 117 42 117 14 0 26 6 29 13 2 6 11
102 19 212 29 379 30 396 16 405 -10 6 -10 25 0 96 7 49 14 92 17 97 2 4 26 7
53 7 l48 0 10 -47z m274 -43 c90 -72 176 -160 420 -428 169 -185 308 -341 308
-347 0 -5 -17 -41 -38 -80 l-38 -70 -336 -3 -335 -2 -22 85 c-26 105 -26 105
4 105 14 0 25 3 25 8 0 4 -25 90 -56 192 -52 173 -91 305 -115 393 -5 20 -16
37 -24 37 -14 0 -22 23 -44 120 -19 82 -20 80 63 80 l75 0 113 -90z m394 -45
c120 -74 220 -139 222 -145 5 -14 -94 -13 -121 2 -12 6 -42 26 -66 45 -34 25
-53 33 -85 33 l-41 -1 35 -30 c121 -105 221 -179 242 -179 l23 1 -22 18 c-13
11 -23 22 -23 25 0 3 30 6 68 6 l67 0 222 -148 c123 -81 223 -150 223 -154 0
-5 -43 -8 -96 -8 -92 0 -98 1 -135 31 -28 22 -47 29 -69 27 -30 -3 -25 -8 102
-110 l133 -108 93 0 c50 0 92 2 92 4 0 2 -25 21 -56 42 l-57 39 111 3 111 3
213 -131 c117 -72 217 -136 222 -141 6 -5 -155 -9 -420 -9 l-429 0 -94 94
c-91 91 -93 94 -66 98 26 3 4 27 -289 313 -174 171 -325 311 -335 313 -16 3
-180 171 -189 194 -2 4 41 8 96 8 l99 0 219 -135z"/>
<path d="M2877 3008 l159 -313 84 0 c82 0 85 1 93 25 8 23 -10 53 -173 285
-100 143 -197 272 -214 287 -22 19 -42 28 -69 28 l-38 0 158 -312z"/>
</g>
</svg>
